<svg id="layer" xmlns="http://www.w3.org/2000/svg" viewBox="0 0 500 500"><title>bgPhoto</title><path d="M196.13,456.5a7,7,0,0,0-5.39-2.16c-6.63,0-15,6.81-17.82,9.88-10.26,11.36-11.4,17.73-9.43,26.36H164c-2.07-8.52-.93-14.77,9.22-26,2.7-3.06,10.88-9.65,17.41-9.65a6.3,6.3,0,0,1,5,2c2.18,2.27,3.32,6.59,3.32,12.61a96.43,96.43,0,0,1-2.8,21.14h.52a91.3,91.3,0,0,0,2.8-21.14C199.65,463.31,198.51,459,196.13,456.5Z" transform="translate(10.6 2.93)" fill="#2a40d4" stroke="#fff" stroke-miterlimit="10"/><path d="M12,292.31c1.35-31,21.35-54.43,37.3-73.18l1.25-1.36a109.36,109.36,0,0,0,8.08-10.45c2.49-3.64,7.15-10.46-3.83-21.36a312.93,312.93,0,0,0-37.93-32.05c-5.49-3.86-10.67-7.38-15.64-10.56v.34c5,3.07,10.15,6.59,15.54,10.45a294.46,294.46,0,0,1,37.82,31.93c10.77,10.68,6.22,17.38,3.83,20.91a107.57,107.57,0,0,1-8.08,10.34l-1.24,1.36C33,237.54,13,261,11.68,292.08c-.62,14.43-3.21,22.84-7.87,26.36a4.54,4.54,0,0,1-2.59,1.14v.34A5.25,5.25,0,0,0,4,318.67C8.88,315.37,11.37,306.85,12,292.31Z" transform="translate(10.6 2.93)" fill="#2a40d4" stroke="#2a40d4" stroke-miterlimit="10"/><path d="M145.77,96.53c-2.07-8.18-18.33-10.45-37.3-13-4.66-.57-9.53-1.25-14.19-2-20.72-3.41-39.69-14.09-58-24.43C27,51.88,17.71,46.65,8.07,42.22V43c9.43,4.31,18.76,9.54,27.87,14.65C54.39,68,73.45,78.81,94.28,82.1c4.66.8,9.53,1.37,14.19,2.05,17.83,2.39,34.71,4.66,36.68,12.38,1.45,6-6.11,15.12-23.31,28-24.14,17.83-44.35,26.24-63.62,26.24a69.79,69.79,0,0,1-32.33-8.29A127.63,127.63,0,0,1,8.17,130.62v.91a133.3,133.3,0,0,0,17.41,11.59,69.91,69.91,0,0,0,32.64,8.41h0c19.48,0,39.79-8.41,64-26.36C139.87,112,147.43,102.9,145.77,96.53Z" transform="translate(10.6 2.93)" fill="#2a40d4" stroke="#2a40d4" stroke-miterlimit="10"/><path d="M342.75,458.31c-.42-3.63-2.7-6.93-6.74-9.54C328.65,444,313.42,442,301.4,442c-2.28,0-4.45.12-6.32.23A197.44,197.44,0,0,0,258,449.34c-1.87.57-3.83,1.13-5.6,1.82-22.17,7.61-35,19.54-41.13,39.42h.52c6.11-19.65,18.86-31.47,40.72-39,1.86-.57,3.73-1.25,5.59-1.82a186.65,186.65,0,0,1,37-7.16c1.87-.11,3.94-.22,6.32-.22,11.82,0,27.05,2,34.3,6.81,3.94,2.5,6.11,5.57,6.42,9.09.94,8.87-9,19.21-17.09,27.61-1.66,1.71-3.21,3.3-4.46,4.66h.73c1.24-1.36,2.59-2.72,4.14-4.31C333.52,477.86,343.68,467.4,342.75,458.31Z" transform="translate(10.6 2.93)" fill="#2a40d4" stroke="#2a40d4" stroke-miterlimit="10"/><path d="M140,430.59a10,10,0,0,1,5.39-1.25,18.86,18.86,0,0,1,2.49.11,18.72,18.72,0,0,0,2.59.12,12.16,12.16,0,0,0,6.84-1.71c6-3.86,8.08-8.29,7.35-10.79-.41-1.71-2.07-2.61-4.25-2.61a17.23,17.23,0,0,0-7.46,2.15,26.06,26.06,0,0,0-5.07,4.09c-2,1.94-3.94,3.87-6.12,4.44a7.32,7.32,0,0,1-2.07.34,16,16,0,0,1-4-.8,13.61,13.61,0,0,0-4.25-.79,7.36,7.36,0,0,0-1.55.11c-2.7.57-4.56,2.27-6.32,4a15.35,15.35,0,0,1-5.08,3.63,29.36,29.36,0,0,1-9.43,1.25A150.25,150.25,0,0,1,93,431.61l-3.73-.45c-9.85-1-20-4.21-31.19-9.66A251,251,0,0,1,31,405.93a21,21,0,0,0-11.29-3.63,20.28,20.28,0,0,0-12.75,4.77v.45a20.45,20.45,0,0,1,12.75-4.88,20.87,20.87,0,0,1,11.19,3.52A273.7,273.7,0,0,0,58,421.73c11.19,5.45,21.45,8.75,31.3,9.66l3.73.45A148,148,0,0,0,109,433.09a30.22,30.22,0,0,0,9.53-1.25,14.43,14.43,0,0,0,5.19-3.64c1.86-1.7,3.52-3.41,6.11-3.86a7.36,7.36,0,0,1,1.55-.11,16.93,16.93,0,0,1,4.15.79,17.71,17.71,0,0,0,4.14.8,7.5,7.5,0,0,0,2.18-.34c2.38-.69,4.35-2.62,6.32-4.55a19.62,19.62,0,0,1,5-4,18.45,18.45,0,0,1,7.25-2.15c2.08,0,3.53.79,4.05,2.38.62,2.39-1.35,6.71-7.15,10.46a12.77,12.77,0,0,1-6.74,1.59,18.72,18.72,0,0,1-2.59-.12,18.86,18.86,0,0,0-2.49-.11,9.66,9.66,0,0,0-5.59,1.36c-2,1.25-3.42,4.43-4.87,7.62a32.2,32.2,0,0,1-2.59,4.88c-7.25,10.11-7.67,21.14-6.11,34.43a119,119,0,0,0,2.59,13.52h.31a119,119,0,0,1-2.59-13.52c-1.56-13.18-1.14-24.09,6.11-34.2a31,31,0,0,0,2.59-4.89C136.55,434.91,138,431.73,140,430.59Z" transform="translate(10.6 2.93)" fill="#fff" stroke="#fff" stroke-miterlimit="10"/><path d="M30.7,218.23l1.45-1.71c6.84-8.29,13.88-16.81,5.91-27-6.22-7.95-15.55-14.43-23.84-20.11-1.65-1.14-3.31-2.28-4.87-3.41-1-.8-2.48-1.82-4.24-3.07l-3-2.27v.45l2.8,2.16c1.66,1.25,3.21,2.39,4.25,3.07,1.55,1.14,3.21,2.27,5,3.41C22.41,175.39,31.74,182,38,189.82c7.88,10,.93,18.41-5.9,26.59-.52.57-.94,1.13-1.45,1.7-5.91,7.27-13.47,17-19.48,27.84a122.67,122.67,0,0,0-9,20.57v1.13a113.72,113.72,0,0,1,9.22-21.47C17.23,235.27,24.79,225.5,30.7,218.23Z" transform="translate(10.6 2.93)" fill="#2a40d4" stroke="#2a40d4" stroke-miterlimit="10"/><path d="M179.45,488.77a13,13,0,0,0-2.07-4.21c-1.14-1.82-2.18-3.41-1.76-6.36.51-4.09,5.28-14.09,10.56-14.09h.11c2.59.11,4.25.79,4.87,2,1.14,2.28-.93,6-2.7,9.09a15.47,15.47,0,0,0-1.86,4,4.7,4.7,0,0,0,1.24,3.86,3.79,3.79,0,0,1,1.14,2.73,6.41,6.41,0,0,1-2.07,4.66l-.1.11h.41a6.53,6.53,0,0,0,2.18-4.77,4.38,4.38,0,0,0-1.25-2.95,4.61,4.61,0,0,1-1.24-3.64,13.13,13.13,0,0,1,1.86-3.86c1.77-3.07,3.94-7.05,2.7-9.43-.73-1.37-2.38-2.05-5.18-2.16h-.11c-5.28,0-10.25,10.22-10.88,14.43-.41,3.07.73,4.77,1.87,6.59a12.39,12.39,0,0,1,2,4.09,4.9,4.9,0,0,1,.31,1.7h.31A5,5,0,0,0,179.45,488.77Z" transform="translate(10.6 2.93)" fill="#2a40d4" stroke="#fff" stroke-miterlimit="10"/><path d="M287.83,475.36a8,8,0,0,0-2.38-.34c-6.12,0-19.17,3.75-19.38,3.86l-4.35,1.36c-7.25,2.5-12.54,5.8-16.48,10.34h.42c3.83-4.43,9.12-7.61,16.16-10,1.45-.45,2.8-.9,4.35-1.36.11,0,13.16-3.86,19.28-3.86a7.88,7.88,0,0,1,2.28.34c2.38,1.13,1.45,3.86-.42,9.77-.41,1.48-1,3.18-1.55,5h.31c.52-1.82,1-3.52,1.55-4.89C289.49,479.56,290.42,476.61,287.83,475.36Z" transform="translate(10.6 2.93)" fill="#2a40d4" stroke="#2a40d4" stroke-miterlimit="10"/><path d="M306.79,467.18c-.93-1.93-4.14-2.62-9.84-2.05a163.13,163.13,0,0,0-32.85,6.48c-1.55.45-3.21.91-4.66,1.48-10.78,3.63-18.34,9.31-23.21,17.61h.41c4.87-8.07,12.33-13.64,23-17.27,1.55-.57,3.11-1,4.66-1.48a169.06,169.06,0,0,1,32.74-6.36,30.63,30.63,0,0,1,3.21-.12c3.53,0,5.6.68,6.32,2,1.14,2.5-2.07,7-5.38,11.36-.52.8-1.14,1.59-1.66,2.39a107.81,107.81,0,0,0-6,9.54h.31a86,86,0,0,1,5.91-9.32c.51-.79,1.14-1.59,1.65-2.38C304.82,474.22,308,469.9,306.79,467.18Z" transform="translate(10.6 2.93)" fill="#2a40d4" stroke="#2a40d4" stroke-miterlimit="10"/><path d="M35.11,125.17a48.63,48.63,0,0,0,23.11,6c4.35,0,13.88-1.82,22.07-4.89,7.25-2.72,15.85-7.15,15.85-13.18,0-7-13.26-11-21.24-13.4a39.77,39.77,0,0,1-4.14-1.37,311.07,311.07,0,0,1-44.56-21q-9.16-5.28-18-9.88v.34C14.08,70.86,20,74.26,26.1,77.56A312.08,312.08,0,0,0,70.65,98.69l4.25,1.37c7.88,2.27,21,6.25,21,13.06,0,10.46-28.6,17.73-37.72,17.73a49.1,49.1,0,0,1-22.9-6C29,121.53,22.89,116.76,17,112.1c-2.8-2.16-5.8-4.54-8.81-6.7v.34c3,2.16,5.81,4.43,8.6,6.59C22.68,117.1,28.79,121.76,35.11,125.17Z" transform="translate(10.6 2.93)" fill="#2a40d4" stroke="#2a40d4" stroke-miterlimit="10"/><path d="M39.47,118a41.77,41.77,0,0,0,19.79,5.23c5.8,0,13.36-1.71,16.16-5.57a6.7,6.7,0,0,0,1-5.91c-1.35-5.23-11.92-8.86-19.59-11.59-2.48-.91-4.66-1.59-6-2.27C42,93.58,33.15,88.69,24.55,83.81l-.94-.57c-5-2.73-9.74-5.45-14.5-8.07v.34c4.66,2.5,9.53,5.23,14.4,8l.93.57c8.5,4.77,17.41,9.77,26.32,14.08,1.35.69,3.52,1.37,6,2.28,7.25,2.5,18.13,6.25,19.38,11.36a6.34,6.34,0,0,1-1,5.57c-2.8,3.75-10.26,5.45-16,5.45a42.15,42.15,0,0,1-19.58-5.11c-5.8-3-11.6-7.5-17.2-11.93-4-3.18-8.5-6.59-13.26-9.77v.34c4.76,3.18,9,6.47,13.05,9.66C27.76,110.4,33.66,114.94,39.47,118Z" transform="translate(10.6 2.93)" fill="#2a40d4" stroke="#2a40d4" stroke-miterlimit="10"/><path d="M195.2,7.45c.52-2.16,1-4.31,1.55-6.59h-.51c-.52,2.16-1,4.21-1.56,6.37-.93,4.09-2,8.18-2.8,12.49-2.69,14.21-5.07,32.84,1,51,2.49,7.39,8.6,13.41,14,18.64,4.87,4.77,9,8.74,8.6,12.27-.21,1.59-1.25,2.95-3.42,4.32a10.75,10.75,0,0,1-5,.9c-8.18,0-22.48-3.75-33.15-7.38-11.61-4-25.91-10.34-28.08-17.95-.73-2.39-.11-4.89,1.76-7.28a91,91,0,0,1,7.36-8.4c4.87-5.12,9.43-10,12.43-17.28a46.08,46.08,0,0,0,1.55-32c-.82-2.61-1.55-5.11-2.28-7.27-1-3.18-2-5.91-2.59-8.52h-.51c.62,2.61,1.55,5.45,2.59,8.75.72,2.16,1.45,4.54,2.28,7.16a45.45,45.45,0,0,1-1.56,31.58c-3,7.16-7.46,12-12.33,17.16-2.48,2.61-5,5.34-7.46,8.41-2,2.5-2.59,5.23-1.76,7.73,2.28,7.84,16.68,14.31,28.39,18.29,10.67,3.64,25.08,7.38,33.36,7.38a10.43,10.43,0,0,0,5.29-1c2.28-1.36,3.52-3,3.73-4.66.41-3.75-3.83-7.84-8.81-12.72-5.39-5.23-11.5-11.25-13.88-18.41-6-18-3.73-36.59-1-50.79C193.23,15.63,194.27,11.43,195.2,7.45Z" transform="translate(10.6 2.93)" fill="#2a40d4" stroke="#2a40d4" stroke-miterlimit="10"/><path d="M107.33,261.4c-.51.91-1,1.71-1.45,2.39-5.38,7.73-11.71,14.66-18.85,22.27-.94,1-2,2-3,3.07-5.91,6.13-12,12.5-15.65,20-1.45,2.95-1.86,5.22-1.24,6.59A2.26,2.26,0,0,0,68.48,317a2.7,2.7,0,0,0,.93.11,10.14,10.14,0,0,0,5-1.93,121.22,121.22,0,0,0,11.3-8.41c3-2.39,6.11-4.89,9.22-7.05,12.74-8.63,21.14-14.31,25.07-30.56.83-3.3,1.35-11-1.24-14.32a3.78,3.78,0,0,0-3.42-1.59C111.89,253.45,109.2,258,107.33,261.4Zm8.09-7.72a3.56,3.56,0,0,1,2.9,1.47c2.48,3.3,2,10.68,1.14,14-3.94,16-12.23,21.7-24.87,30.34-3.21,2.16-6.22,4.66-9.22,7a119.47,119.47,0,0,1-11.3,8.41c-2.38,1.48-4.45,2.16-5.7,1.7a1.66,1.66,0,0,1-1.13-1.13c-.52-1.25-.11-3.52,1.24-6.25,3.62-7.5,9.74-13.75,15.64-19.89L87,286.29c7.14-7.62,13.57-14.43,19-22.27.41-.69.93-1.48,1.45-2.39,2-3.29,4.56-7.73,7.66-7.95Z" transform="translate(10.6 2.93)" fill="#2a40d4" stroke="#2a40d4" stroke-miterlimit="10"/><path d="M332.8,457.63c-3.11-6.82-15.75-8.29-25.8-8.29-3.52,0-7.36.22-11.29.57a181.07,181.07,0,0,0-35.65,6.93c-1.76.57-3.62,1.13-5.28,1.7-11.09,3.75-19.59,9.2-26,16.7a51.85,51.85,0,0,0-9.22,15.46h.31c6.11-15.57,17.51-25.8,34.92-31.82l5.28-1.7a180.73,180.73,0,0,1,35.54-6.93c4-.34,7.77-.57,11.3-.57,9.94,0,22.38,1.36,25.48,8.07,3.32,7.27-4.76,15.11-10.15,20.33-.93.91-1.76,1.71-2.49,2.5a90,90,0,0,0-8.49,9.55l-.31.45h.41l.21-.34a88.7,88.7,0,0,1,8.49-9.43c.73-.79,1.56-1.59,2.49-2.5C328,473.09,336.22,465.13,332.8,457.63Z" transform="translate(10.6 2.93)" fill="#2a40d4" stroke="#2a40d4" stroke-miterlimit="10"/><path d="M114.07,440c-4.77-1.25-9.84-1.36-14.71-1.36-2.8,0-5.81-.12-8.6-.34a100.21,100.21,0,0,1-36.06-10,302.69,302.69,0,0,1-27.87-15.91A13,13,0,0,0,19.47,410c-4.46,0-9,3-12.75,8v.57c3.63-5.12,8.29-8.19,12.75-8.19a13.92,13.92,0,0,1,7.25,2.39,256.74,256.74,0,0,0,27.87,15.91,101.19,101.19,0,0,0,36.17,10c2.79.22,5.69.34,8.6.34,4.87.11,9.94.11,14.61,1.36,7.25,1.93,7,7.39,6,13.86-1.24,7.62-2.27,15.23-1.24,23.86a101.05,101.05,0,0,0,2.28,12.5h.31A104.71,104.71,0,0,1,119,478c-1-8.63,0-16.13,1.25-23.75C121.32,447.86,121.63,442,114.07,440Z" transform="translate(10.6 2.93)" fill="#fff" stroke="#fff" stroke-miterlimit="10"/><path d="M100.29,8.13c.21.8.52,1.82.83,3,.93,3.29.83,5.45-.52,6.48a4.32,4.32,0,0,1-2.8.79C92.62,18.36,84,13.59,81.12,12a26.8,26.8,0,0,0-3.21-1.71L73.56,8.13c-4-2-7.88-4.09-11.71-6.13h-.73c3.94,2.16,8,4.32,12.23,6.36l4.35,2.16c.83.46,1.87,1,3.21,1.7,2.9,1.6,11.5,6.37,16.79,6.37a4.18,4.18,0,0,0,3-.91q2.17-1.71.62-6.82c-.31-1.13-.62-2.16-.82-2.95-.42-1.93-1-4-1.46-6h-.31C99.25,4,99.77,6.09,100.29,8.13Z" transform="translate(10.6 2.93)" fill="#2a40d4" stroke="#2a40d4" stroke-miterlimit="10"/><path d="M132.3,13.7c2.91,9.43,5.81,21.25,1.35,29.09-2.07,3.86-6,6.48-11.4,7.61a37.16,37.16,0,0,1-8,.8c-30.67,0-75.12-27.84-99.06-42.72L10.87,5.75a22.08,22.08,0,0,0-4-2.5v.34c1.34.68,2.69,1.48,3.94,2.27l4.45,2.73c23.83,15,68.39,42.84,99.16,42.84a38.85,38.85,0,0,0,8.08-.8c5.49-1.14,9.33-3.75,11.61-7.73,4.45-7.95,1.65-19.77-1.35-29.31-1.24-4.09-2.49-8.3-3.63-12.61h-.31C129.82,5.29,131.06,9.5,132.3,13.7Z" transform="translate(10.6 2.93)" fill="#2a40d4" stroke="#2a40d4" stroke-miterlimit="10"/><path d="M114.38,3.7c1.55,5.8,3.11,11.82,3.21,18.07.21,8-2.9,12.61-9.12,13.63a25.24,25.24,0,0,1-3,.23c-10.78,0-26.22-8-34.5-12.16l-2.28-1.13-2.08-1C53.77,14.72,41.75,8,31.49,1.43h-.62A394.38,394.38,0,0,0,66.61,21.54l2.08,1,2.17,1.14C79.15,28,94.69,36,105.57,36a26,26,0,0,0,3-.22c6.32-1.14,9.53-5.8,9.32-14-.2-6.25-1.76-12.27-3.21-18.18l-.62-2h-.31C114,2.23,114.17,2.91,114.38,3.7Z" transform="translate(10.6 2.93)" fill="#2a40d4" stroke="#2a40d4" stroke-miterlimit="10"/><path d="M126.09,16.54a7.68,7.68,0,0,0,.52,1.48c1.65,5.34,3.42,10.79.62,16.13A18.76,18.76,0,0,1,115,43.24a6.92,6.92,0,0,1-1.55.23c-1.35.12-2.59.23-3.94.23-14.3,0-31-8.41-43.21-14.66l-2.07-1C48.58,20.18,33.46,10.75,20.09,2.45l-1.45-.91H18l2,1.25c13.26,8.3,28.39,17.73,44.14,25.57l2.07,1C78.43,35.52,95.21,44,109.51,44c1.35,0,2.69-.11,3.94-.23.52-.11,1-.11,1.55-.22a19.52,19.52,0,0,0,12.44-9.32c2.9-5.46,1.13-11-.63-16.36l-.51-1.48c-1.46-4.77-3-9.77-4.15-15h-.31C123.08,6.66,124.64,11.77,126.09,16.54Z" transform="translate(10.6 2.93)" fill="#2a40d4" stroke="#2a40d4" stroke-miterlimit="10"/><path d="M113.65,243.22c-4.66,1.14-8.7,7.84-12,13.07a49.5,49.5,0,0,1-3.22,4.89,224.36,224.36,0,0,1-17,19.43C80,282.2,78,284,76,285.83c-5.9,5.68-13.26,12.61-15.54,19.09-1.86,5.46-.73,10.57.31,15.57.93,4.09,1.76,8.29,1,12.72-.42,2.73-2.08,5.46-3.73,8.3-2.08,3.41-4.15,6.93-4.25,10.68a9.17,9.17,0,0,0,.62,3.75c1.45,4.09,2.9,5.91,4.56,5.91s3.63-1.82,6.32-6.37c2.69-4.31,3.73-9.31,4.66-14.09s2.08-9.77,4.77-14.2c5.08-8.29,14.09-14.32,22-19.66l2-1.36c13.16-9,23.52-16,28.19-35.11,1.24-5,.93-17.84-4-24.43A8.19,8.19,0,0,0,113.65,243.22Zm9,3.75c4.45,5.91,5.28,18.3,4,24-4.56,18.86-14.82,25.9-28,34.77l-2,1.36c-8,5.34-17,11.48-22.18,19.88-2.69,4.44-3.73,9.44-4.76,14.32s-2.08,9.66-4.67,14c-1.86,2.95-4,6.13-5.9,6.13-1.45,0-2.8-1.82-4.15-5.57a8.43,8.43,0,0,1-.52-3.52c.11-3.63,2.18-7,4.15-10.45,1.76-2.84,3.31-5.57,3.83-8.41.73-4.54-.2-8.75-1-12.95-1-5.12-2.08-10-.31-15.23C63.4,299,70.76,292,76.66,286.4c2-1.93,3.94-3.75,5.39-5.34a222.88,222.88,0,0,0,17-19.43c.94-1.25,2.08-3.07,3.22-4.89,3.21-5.22,7.25-11.81,11.71-12.84a8.3,8.3,0,0,1,2.38-.34,7.64,7.64,0,0,1,6.32,3.41Z" transform="translate(10.6 2.93)" fill="#2a40d4" stroke="#2a40d4" stroke-miterlimit="10"/><path d="M118.52,219.48a10,10,0,0,0-7-4.78,11,11,0,0,1-5.18-2.16l-.21-.22c-5.39-6.25-23.52-26.59-29.74-26.59a2,2,0,0,0-1.65.79c-.83,1.14-.73,3.3.1,6.82.52,2,5.7,4.89,11.09,8,4.55,2.5,9.22,5.11,10.77,7,1.45,1.7,3.32,4.09,3.21,5,0,.23-.31.34-.72.57-.93.45-2.38,1.25-1.66,4.66a25.51,25.51,0,0,0,3.32,7,27.5,27.5,0,0,1,3,6.14c1.35,5.34-7.15,15.22-12.85,21.7-1.86,2.16-3.52,4-4.56,5.45a152.07,152.07,0,0,1-14.19,15.91C62.57,284.58,52.52,294.7,49,308.67c-5.29,20.91-6.43,39.31-3.21,54.77,1.65,8.29,7.56,19.77,13.26,19.77,3.52,0,6.11-4.32,7.67-12.95,5.9-33.18,22.17-44.2,37.82-54.89,13.88-9.43,27-18.4,32.63-41.58,2.08-8.75-1.13-22.27-5.38-29.66a23,23,0,0,0-6.63-7,21.36,21.36,0,0,1-5.39-5.46c-1-1.7-.83-3.63-.62-5.79C119.56,223.79,119.87,221.41,118.52,219.48Zm.94,12.49a21.33,21.33,0,0,0,5.59,5.69,21.09,21.09,0,0,1,6.32,6.81c4.15,7.28,7.46,20.57,5.29,29.09-5.6,22.95-18.55,31.82-32.33,41.13-15.75,10.8-32.12,21.93-38.13,55.45-1.45,8.07-3.83,12.39-6.94,12.39-4.87,0-10.68-10.34-12.54-19.21-3.21-15.34-2.07-33.74,3.11-54.42,3.42-13.75,13.36-23.86,23-33.52a142.51,142.51,0,0,0,14.3-15.91c1-1.36,2.59-3.29,4.45-5.34,6.12-7,14.51-16.7,13.06-22.38a23.85,23.85,0,0,0-3.11-6.37,22.22,22.22,0,0,1-3.21-6.81c-.62-2.84.31-3.41,1.24-3.87.52-.22.94-.45,1-1.13s-.31-2-3.32-5.68c-1.65-2-6.42-4.66-11-7.16-4.87-2.62-10.26-5.68-10.78-7.39-1-4-.72-5.45-.2-6.13a1,1,0,0,1,1-.46c4.67,0,18.14,13.64,29.22,26.25l.21.23a12.63,12.63,0,0,0,5.49,2.38,9.15,9.15,0,0,1,6.63,4.32c1,1.7.94,3.64.73,5.8s-.31,4.31.83,6.24Z" transform="translate(10.6 2.93)" fill="#2a40d4" stroke="#2a40d4" stroke-miterlimit="10"/><path d="M1.42,133.81c35.75,20.79,74.4,54,81.44,70.45,4.25,9.88-6,21.7-19,36.7-14.71,17-33,38.17-34.19,63.51C28.36,335.38,13.44,348.1,1.42,352v.79c12.23-3.86,27.56-16.7,29-48.29,1.14-25.11,19.38-46.13,34-63.06,13.16-15.11,23.52-27.16,19.06-37.5-7.15-16.58-46-50-82.16-70.9v.8Z" transform="translate(10.6 2.93)" fill="#2a40d4" stroke="#2a40d4" stroke-miterlimit="10"/><path d="M187.12,1.2h0l-.42-.11a9,9,0,0,0-1.76,2.61c-1.35,3.18-.93,6.59-.62,9.77a32.27,32.27,0,0,1,.31,5.46,60.2,60.2,0,0,1-1.24,8.63c-.42,2.39-.94,4.78-1.14,7.16-1.35,14.43-.11,27.5,3.73,38.75.83,2.38,3.83,5.91,7.15,9.77,4.14,4.89,8.49,9.89,8.6,13a1.78,1.78,0,0,1-.52,1.59q-1.71,1.88-9,.69A45.55,45.55,0,0,1,182,94.94c-1.87-.79-3.83-1.7-5.8-2.38l-1.76-.68c-7-2.39-16.69-5.69-18.14-11.37-.62-2.72.63-5.91,3.84-9.31,5.07-5.46,10.26-11,13.78-19.55,3.42-8.18,7.25-24,5.8-32.61A11.61,11.61,0,0,0,178.1,15a7.68,7.68,0,0,1-1.45-5.57,9,9,0,0,1,1.76-4.09A6,6,0,0,0,179.66,1h-.31a5.75,5.75,0,0,1-1.25,4.2,10.65,10.65,0,0,0-1.76,4.2,7.68,7.68,0,0,0,1.45,5.8,11,11,0,0,1,1.66,4c1.45,8.52-2.38,24.31-5.8,32.38-3.53,8.41-8.71,14-13.78,19.43-3.32,3.52-4.67,6.7-3.94,9.66,1.45,5.91,11.19,9.2,18.34,11.7l1.76.57c2,.68,3.94,1.59,5.8,2.38a39.54,39.54,0,0,0,10.26,3.53,23.61,23.61,0,0,0,4.87.45c2.18,0,3.63-.45,4.35-1.25a2.64,2.64,0,0,0,.62-1.93c-.2-3.18-4.56-8.29-8.7-13.18-3.21-3.75-6.32-7.39-7-9.66-3.73-11.25-5-24.31-3.62-38.63.21-2.39.72-4.77,1.14-7.16a61.65,61.65,0,0,0,1.24-8.75,47.42,47.42,0,0,0-.31-5.45c-.41-3.3-.73-6.48.52-9.55A15.21,15.21,0,0,1,187.12,1.2Z" transform="translate(10.6 2.93)" fill="#2a40d4" stroke="#2a40d4" stroke-miterlimit="10"/><path d="M151.89,7.23c6.63,21.13,13.36,43-12.33,58.17a43.52,43.52,0,0,1-12.85,5,62.33,62.33,0,0,1-12.12,1.25c-34.82,0-78.34-26.59-105.48-43.52V29c27.25,17,70.66,43.41,105.48,43.41a55,55,0,0,0,12.22-1.25,45.32,45.32,0,0,0,13.06-5.12C166.08,50.52,159.24,28.36,152.51,7c-.62-1.93-1.24-3.86-1.76-5.8h-.83C150.54,3.14,151.27,5.18,151.89,7.23Z" transform="translate(10.6 2.93)" fill="#2a40d4" stroke="#2a40d4" stroke-miterlimit="10"/><path d="M108.58,450.36c-3.84-3.64-9.64-4-14.72-4.2-1.34-.12-2.59-.12-3.73-.23a109.11,109.11,0,0,1-38.54-10.68A196.19,196.19,0,0,1,26.31,420.7a9.42,9.42,0,0,0-5.7-1.93c-4.35,0-8.5,3.53-11,9.43-.94,2.16-1.87,4.32-2.8,6.59v.8c1-2.39,2.07-4.77,3.21-7.16,2.38-5.79,6.32-9.2,10.57-9.2a8.81,8.81,0,0,1,5.49,1.93,179,179,0,0,0,25.28,14.66A109.84,109.84,0,0,0,90,446.5c1.24.11,2.49.22,3.73.22,5.08.23,10.78.57,14.51,4.21,4.35,4.2,3.73,12,3.21,19.09a55.73,55.73,0,0,0-.21,9.31,85.59,85.59,0,0,0,2.38,11.59H114a89.2,89.2,0,0,1-2.39-11.7,54.4,54.4,0,0,1,.21-9.2C112.51,462.63,113.14,454.56,108.58,450.36Z" transform="translate(10.6 2.93)" fill="#fff" stroke="#fff" stroke-miterlimit="10"/><path d="M9.42,469.34c-.93-.35-1.76-.8-2.59-1.14v.34c.72.34,1.55.68,2.38,1.14.42.22.93.34,1.35.56A105.81,105.81,0,0,1,27,479c5.49,3.75,11.71,7.73,18.34,11.71H46c-6.94-4.09-13.26-8.07-18.85-11.93A85.79,85.79,0,0,0,10.66,470,3.33,3.33,0,0,0,9.42,469.34Z" transform="translate(10.6 2.93)" fill="#fff" stroke="#fff" stroke-miterlimit="10"/><path d="M22.89,485.24c2.48,1.71,5.18,3.53,8,5.34h.62c-2.9-1.93-5.8-3.75-8.5-5.56a102.63,102.63,0,0,0-16.16-8.64v.34A106.74,106.74,0,0,1,22.89,485.24Z" transform="translate(10.6 2.93)" fill="#fff" stroke="#fff" stroke-miterlimit="10"/><path d="M13.45,489.63h0A64.05,64.05,0,0,0,6.7,486v.28a54.69,54.69,0,0,1,6.57,3.56l2.11,1.34h.52Z" transform="translate(10.6 2.93)" fill="#fff" stroke="#fff" stroke-miterlimit="10"/><path d="M79.25,2.57c2,1.13,4.67,2.5,7.15,2.5A4.13,4.13,0,0,0,89,4.27l.21-.11a5.07,5.07,0,0,0,1.56-2.62h-.52A4.64,4.64,0,0,1,88.89,3.7l-.1.12a4.19,4.19,0,0,1-2.28.68c-2.28,0-5-1.36-6.84-2.39-.31-.11-.52-.34-.83-.45l-.31-.12H77.29l1.14.57Z" transform="translate(10.6 2.93)" fill="#2a40d4" stroke="#2a40d4" stroke-miterlimit="10"/><path d="M84.23,480.81a4.1,4.1,0,0,0-.42-3.63c-1.55-2.5-5.8-3.07-8.8-3.53l-1.45-.22-.73-.12a41.55,41.55,0,0,0-7.46-1,3.8,3.8,0,0,0-2.9.8,1.31,1.31,0,0,0-.31.9c.1,2.84,4.35,4.55,6.84,5.57a10.37,10.37,0,0,1,1,.46c.73.34,1.45.68,2.28,1.13,2.59,1.37,5.49,2.84,8.08,2.84a2.75,2.75,0,0,0,.94-.11A4,4,0,0,0,84.23,480.81Zm-3,2.39c-.31,0-.52.11-.83.11-2.38,0-5.28-1.48-7.77-2.73-.83-.45-1.55-.79-2.28-1.13a7.06,7.06,0,0,1-1-.46c-2.39-1-6.32-2.61-6.53-5a.46.46,0,0,1,.21-.45c.2-.23.83-.57,2.48-.57a42.31,42.31,0,0,1,7.36,1l.73.12,1.45.23c2.79.45,7,1.13,8.39,3.29a4.17,4.17,0,0,1,.31,3.18A3.69,3.69,0,0,1,81.22,483.2Z" transform="translate(10.6 2.93)" fill="#fff" stroke="#fff" stroke-miterlimit="10"/><path d="M104.85,466.15c.52-3.18,1-6.59-1-9.09-2.49-2.95-6.42-3.18-10-3.4h-.41c-1.25-.12-2.7-.12-4-.23a117.69,117.69,0,0,1-41-11.36c-4-1.94-8-4.21-11.81-6.48-2.07-1.25-4.25-2.5-6.42-3.64l-.11-.11c-2.59-1.36-5.18-2.84-7.87-2.84a6.81,6.81,0,0,0-3.94,1.25c-4.35,2.84-6.32,8.52-8.39,14q-1.25,3.42-2.8,6.82v.68a65.06,65.06,0,0,0,3.21-7.38c2-5.34,4-10.91,8.29-13.75a6.31,6.31,0,0,1,3.73-1.14c2.59,0,5.29,1.37,7.77,2.73l.11.11c2.07,1.14,4.35,2.39,6.42,3.64,3.84,2.16,7.88,4.43,11.92,6.48a116,116,0,0,0,41.13,11.47c1.35.12,2.8.23,4,.23h.31c3.53.23,7.46.34,9.85,3.3,2,2.38,1.45,5.68.93,8.74a27.69,27.69,0,0,0-.41,3A62,62,0,0,0,104,479.9a97.3,97.3,0,0,0,2,10.8h.31a76,76,0,0,1-2.07-10.8,53.33,53.33,0,0,1,.2-10.79C104.54,468.09,104.74,467.18,104.85,466.15Z" transform="translate(10.6 2.93)" fill="#fff" stroke="#fff" stroke-miterlimit="10"/><path d="M22.33,204.46c2.79-8,0-11.14-12.54-19.66l-3-2.05C5.44,181.84,4.19,180.94,3,180v.45L6.58,183l3,2.05c12.33,8.4,15,11.59,12.44,19.31-2.39,7-7.15,13-12.13,19.32-2.28,3-4.66,5.91-6.94,9.09v.57c2.28-3.3,4.77-6.48,7.15-9.43C15.18,217.52,19.84,211.5,22.33,204.46Z" transform="translate(10.6 2.93)" fill="#2a40d4" stroke="#2a40d4" stroke-miterlimit="10"/><path d="M90.76,462c-3.32-1.48-7.05-1.82-10.57-2.16a55.69,55.69,0,0,1-6.12-.79,119.27,119.27,0,0,1-28.9-10c-4.25-2.05-8.29-4.32-12.23-6.71-.52-.34-1.24-.79-1.87-1.13-2.28-1.48-5.07-3.3-7.66-3.3a3.85,3.85,0,0,0-2.49.8c-2,1.36-2.8,4.2-3.63,6.7-.2.57-.41,1.25-.62,1.71a37.26,37.26,0,0,1-1.76,3.52c-1.76,3.29-3.94,7.38-3.21,9.77s3.94,3.86,6.53,4.89a10.16,10.16,0,0,1,1.55.68,91.58,91.58,0,0,1,11.6,6.59,310.51,310.51,0,0,0,29.74,18h.73A322.15,322.15,0,0,1,31.7,472.18a78,78,0,0,0-11.51-6.59l-1.55-.69c-2.49-1.13-5.6-2.38-6.32-4.77s1.45-6.36,3.21-9.54A39.53,39.53,0,0,0,17.29,447l.62-1.7c.83-2.39,1.66-5.23,3.53-6.59a3.58,3.58,0,0,1,2.38-.68c2.49,0,5.18,1.81,7.46,3.29.73.45,1.35.91,2,1.25,3.83,2.27,8,4.66,12.23,6.7a124.53,124.53,0,0,0,29,10,58.06,58.06,0,0,0,6.11.8c3.52.34,7.15.68,10.47,2.16,5.8,2.61,5.8,7.72,5.8,13.18a47.29,47.29,0,0,0,.21,5.45,97.77,97.77,0,0,0,1.76,9.77h.31a75.66,75.66,0,0,1-1.76-9.77,46.35,46.35,0,0,1-.21-5.34C96.77,469.9,96.77,464.56,90.76,462Z" transform="translate(10.6 2.93)" fill="#fff" stroke="#fff" stroke-miterlimit="10"/><path d="M76.56,489.67a365.11,365.11,0,0,1-40.93-23.74,36.31,36.31,0,0,0-4.56-2.62A31.81,31.81,0,0,1,25,459.45c-2.49-2.16-3.21-4.32-2.07-7a4.3,4.3,0,0,1,4.35-3.07c3.42,0,8,2.84,11.4,5,1.34.79,2.48,1.47,3.31,1.93a129.45,129.45,0,0,0,30.78,10.57,46.7,46.7,0,0,0,6.94.9l1.14.12c2.69.23,5.7.45,7.46,2.5s2,6.13,2.07,9.54c0,.91.1,1.82.1,2.5v.46c.21,2.16.52,5.45-.31,7.84h.63c.72-2.5.41-5.68.2-7.84v-.46a19.92,19.92,0,0,1-.1-2.5c-.1-3.41-.31-7.61-2.28-9.77s-5.08-2.5-7.88-2.73l-1.13-.11c-2.28-.23-4.56-.45-6.84-.91a133.2,133.2,0,0,1-30.67-10.57c-.83-.45-2-1.13-3.32-1.93-3.42-2.16-8.08-5-11.6-5a4.81,4.81,0,0,0-4.77,3.41c-1.14,2.84-.41,5.34,2.28,7.61a35.8,35.8,0,0,0,6.22,4c1.55.8,3.1,1.71,4.56,2.61a357.85,357.85,0,0,0,41,23.87l.72.34h1.25Z" transform="translate(10.6 2.93)" fill="#fff" stroke="#fff" stroke-miterlimit="10"/><path d="M109.92,271.63h0c-1.55,0-3.1,1.93-4.24,3.41a4.54,4.54,0,0,1-.63.79c-1,1.25-2.07,2.5-3,3.75L100.18,282l-.1.11c-2.07,2.62-3,4.32-2.69,5.12a1,1,0,0,0,.93.56h.31c4.25-.11,7.67-4.09,9.33-6.36a19.08,19.08,0,0,0,3.21-6.59A5.41,5.41,0,0,0,111,272,2.11,2.11,0,0,0,109.92,271.63Zm.63,3.18a20.88,20.88,0,0,1-3,6.36c-1.66,2.28-4.87,6.14-8.91,6.14v0h-.21c-.41,0-.41-.23-.52-.23-.1-.34-.1-1.36,2.6-4.54l.1-.12c.62-.79,1.24-1.59,2-2.5.93-1.25,2-2.5,3-3.75a4.1,4.1,0,0,0,.62-.79c1-1.25,2.49-3.18,3.84-3.18h0a.78.78,0,0,1,.52.22,4.83,4.83,0,0,1,0,2.39Z" transform="translate(10.6 2.93)" fill="#2a40d4" stroke="#2a40d4" stroke-miterlimit="10"/><path d="M221.83,382.07c14.09-1.59,29.22-18.41,29.42-32.61.32-21.81-11.91-39.2-23.62-56-2-2.85-4-5.8-6-8.75L220.48,283c-5.59-8.18-11.81-17.5-13.88-27.61-1.76-8.52-4.36-28.41-1.45-35.22,2.07-5,8.08-7.84,13.88-10.68,4-1.93,7.77-3.75,10.47-6.25l.1-.12c9.12-8.52,9.12-8.52,15.33-8.75,1.87-.11,4.25-.11,7.57-.45a48.11,48.11,0,0,0,8.91-1.59,12.32,12.32,0,0,1,2.9-.57c1.86,0,3.52,1.36,8.81,6,15.64,13.64,15.33,37.27,15,60.22-.31,28.86-.72,58.63,31,68.07a43.43,43.43,0,0,0,13.26,2c11.92,0,22.07-5.45,29.43-15.79,10.67-15.23,13.57-39,7.05-59.09-14.92-46.47-50.67-73.06-89-98.28-34.92-23-68.07-29.32-96.57-33.52a33.36,33.36,0,0,0-5.8-.46c-11.5,0-17,6-23.93,13.64a114.78,114.78,0,0,1-8.81,9c-3.94,3.53-8.91,5.91-13.68,8.3-7.87,3.86-15.23,7.38-18.34,15.34-6.53,16.93,9.43,30.22,23.52,41.81,6.53,5.46,12.64,10.46,16.27,15.57,14.3,20.22,10.05,54.31-2.9,73.4-4,6-11.81,13.41-20,21.13-13.57,13-29,27.61-31.71,40-1.24,5.79-.93,9.77,1,12.39,1.66,2.15,4.46,3.18,8.5,3.18,6.63,0,16.26-2.84,26.32-5.8,12.33-3.63,26.42-7.84,38.33-7.84a33.23,33.23,0,0,1,14.41,2.84,64.85,64.85,0,0,1,12.33,8.3c6.21,5,12.12,9.65,20.41,9.65A5,5,0,0,0,221.83,382.07ZM186.7,363.78a34.11,34.11,0,0,0-14.61-2.84c-12,0-26.11,4.2-38.54,7.84-10.05,3-19.58,5.79-26.22,5.79-3.83,0-6.52-.91-8.08-2.95-1.86-2.39-2.07-6.25-.93-11.93,2.69-12.16,18-26.82,31.6-39.77,8.19-7.84,16-15.23,20.1-21.25,13.06-19.31,17.41-53.63,2.9-74.08-3.62-5.11-9.84-10.23-16.37-15.68-13.88-11.59-29.73-24.66-23.31-41.25,3-7.84,10.26-11.36,18-15.11,4.87-2.39,9.84-4.77,13.78-8.41a116.4,116.4,0,0,0,8.81-9.09c6.84-7.5,12.22-13.52,23.52-13.52a31.48,31.48,0,0,1,5.7.46c28.39,4.09,61.54,10.45,96.36,33.4,38.33,25.23,73.87,51.7,88.8,98.06,6.42,20,3.62,43.52-7.05,58.63-7.15,10.23-17.2,15.57-29,15.57a42.59,42.59,0,0,1-13.06-2c-14.09-4.2-23-12.73-27.25-26.25-3.83-12-3.63-26.93-3.42-41.36.31-23.06.62-46.92-15.23-60.67-7.56-6.59-7.77-6.7-12.12-5.57a58.13,58.13,0,0,1-8.91,1.59c-3.32.34-5.6.34-7.46.46-6.32.22-6.32.22-15.65,8.86l-.1.11c-2.59,2.39-6.32,4.21-10.36,6.14-5.91,2.84-12,5.68-14.2,10.91-2.9,6.93-.31,26.93,1.45,35.56,2.07,10.11,8.39,19.54,14,27.73l1.14,1.7c2,2.95,4,5.91,6,8.75,11.71,16.7,23.83,34.09,23.52,55.67-.21,14-15,30.46-28.91,32a20.4,20.4,0,0,1-2.59.11c-8.19,0-14-4.66-20.1-9.54A74.91,74.91,0,0,0,186.7,363.78Z" transform="translate(10.6 2.93)" fill="#2a40d4" stroke="#2a40d4" stroke-miterlimit="10"/><path d="M484.59,2C483,1.2,481.38.41,479.72-.39h-.82a55,55,0,0,1,5.69,2.73Z" transform="translate(10.6 2.93)" fill="#2a40d4" stroke="#fff" stroke-miterlimit="10"/><path d="M470.09,214.14c-.52-.46-1.35-1.14-2.38-2-4-3.64-10.78-9.66-15.55-9.66a4.47,4.47,0,0,0-4.14,2.73c-1.14,2.27,1.35,7.61,2.9,11.13.41.91.72,1.59.93,2.16.42,1.14.83,2.16,1.14,3a176.27,176.27,0,0,1,6.32,19.09c.21.68.31,1.47.52,2.38.83,3.64,1.76,8.18,4.25,10.34a7.24,7.24,0,0,0,2.8,1.71,5,5,0,0,0,1.14.22c2.9,0,4.87-3.4,6.83-6.59.42-.79.94-1.47,1.35-2.16l.42-.68c7.35-11.47,11.7-18.29-1.77-27.95C473.61,216.75,471.85,215.5,470.09,214.14Zm6.11,31.24-.41.68c-.42.69-.94,1.48-1.35,2.28-1.87,3.18-3.73,6.36-6.32,6.36a3.35,3.35,0,0,1-1-.11,7.91,7.91,0,0,1-2.59-1.6c-2.28-2-3.31-6.59-4-10.11-.21-.91-.31-1.7-.52-2.38-1.76-6.48-3.93-13-6.32-19.21-.31-.91-.72-1.93-1.14-2.95a16.46,16.46,0,0,0-.93-2.16c-1.45-3.18-3.94-8.63-2.9-10.68a4,4,0,0,1,3.63-2.5c4.56,0,11.19,6,15.23,9.54,1,.91,1.86,1.71,2.48,2.16,1.77,1.37,3.53,2.62,4.77,3.53,12.85,9.2,8.5,15.9,1.45,27.15Z" transform="translate(10.6 2.93)" fill="#2a40d4" stroke="#2a40d4" stroke-miterlimit="10"/><path d="M478.79,201.86c-2.38-1.7-4.66-3.75-7.15-5.79-7.56-6.36-16.16-13.52-23.83-13.52a12.08,12.08,0,0,0-4.45.79c-13.58,5.23-11.71,20.11-9.33,28.41,1.45,5.11,3.32,10.11,5.18,15a169.13,169.13,0,0,1,5.8,17.5,100.16,100.16,0,0,1,1.87,11.13c1.35,11.25,2.69,21.93,17.3,21.93,1.14,0,2.39-.11,3.73-.23a17.73,17.73,0,0,0,4.25-.79c3.94-1.25,5.08-3.75,6.84-7.39q.78-1.69,1.86-3.75c1.14-2,2.39-4,3.63-5.91v-.56a57.16,57.16,0,0,0-3.94,6.36q-1.08,2-1.86,3.75c-1.76,3.63-2.9,6-6.63,7.27a16.94,16.94,0,0,1-4.15.8c-1.34.11-2.48.22-3.73.22-14.4,0-15.54-10-17-21.7a100.16,100.16,0,0,0-1.87-11.13c-1.65-5.91-3.62-11.82-5.8-17.62-1.86-4.88-3.73-9.88-5.18-15-2.38-8.3-4.25-22.84,9.12-28.07a10.87,10.87,0,0,1,4.25-.79c7.56,0,16.16,7.15,23.62,13.52,2.49,2,4.87,4.09,7.15,5.79,1.76,1.36,3.32,2.5,4.46,3.3l1.45,1V206l-1.25-.9C482.11,204.36,480.55,203.23,478.79,201.86Z" transform="translate(10.6 2.93)" fill="#2a40d4" stroke="#2a40d4" stroke-miterlimit="10"/><path d="M470.4,445.59a223.41,223.41,0,0,1-14.51,20c-.2.34-.52.56-.72.9-1.87,2.28-4.25,5.23-2.59,8.07s6.21,3.3,9.63,3.75l1.66.23a76.73,76.73,0,0,1,20.62,6.25v-.34a76.37,76.37,0,0,0-20.62-6.25c-.52-.12-1-.12-1.66-.23-3.31-.45-7.87-.91-9.43-3.63s.73-5.46,2.59-7.62l.73-.91a207.74,207.74,0,0,0,14.51-20.11c4.14-6.59,7-13.52,10.15-20.79a40.23,40.23,0,0,1,3.63-6.59v-.57a35.4,35.4,0,0,0-3.94,7C477.44,432.07,474.54,439,470.4,445.59Z" transform="translate(10.6 2.93)" fill="#2a40d4" stroke="#2a40d4" stroke-miterlimit="10"/><path d="M355.59,7.23c1.66,5.79,13.47,9,21,9,10.77,0,22.07-2.16,34.09-4.54s24.55-4.78,36.78-4.78c13.37,0,24.56,3,34.19,9l1.56,1V16.2c-.42-.23-.94-.57-1.35-.79-9.74-6.14-21-9.09-34.5-9.09-12.23,0-24.77,2.38-36.89,4.77s-23.21,4.54-34,4.54c-7.56,0-19.06-3.29-20.51-8.52-.52-1.82.1-3.63,1.86-5.57h-.72A6.09,6.09,0,0,0,355.59,7.23Z" transform="translate(10.6 2.93)" fill="#2a40d4" stroke="#fff" stroke-miterlimit="10"/><path d="M443.56,43.24h-7.87c-7.25,0-12.95.46-19.38,2.39a60,60,0,0,0-9.43,4.2c-5.07,2.62-9.74,5.12-15.44,5.12a23.85,23.85,0,0,1-2.79-.23c-4.15-.57-7.36-3.18-10.36-5.57-3.42-2.72-6.64-5.34-11.19-5.34a4.42,4.42,0,0,0-1.25.12c-2.8.34-7.25,2.84-11.6,5.34A66.67,66.67,0,0,1,347,53.13a64.22,64.22,0,0,1-6.21,1.93c-4.46,1.14-5.08,1.48-7.15,9.89-.62,2.38-1,4.54-1.45,6.59-1.56,7.84-2.8,14-10.88,19.88-5.49,4-12.44,5.91-21.24,5.91s-17.93-1.93-26-3.52c-4.25-.91-8.19-1.71-11.19-2a59.85,59.85,0,0,0-7.05-.34c-7.77,0-16.89,3-17.51,7.16-.31,1.93,1.25,5,10.16,8l1,.34c34.09,11.25,57.82,25.91,82,50.57,6.63,6.81,11.71,10,16.06,10a8.27,8.27,0,0,0,2.9-.57c4.56-1.71,7.88-7.62,11.71-14.43,2-3.53,4.25-7.5,6.84-11.37a96.85,96.85,0,0,1,51.81-38.17,65.3,65.3,0,0,1,17.61-2.73c18.34,0,31.29,9.2,43.52,18.75v-.68c-12.23-9.43-25.18-18.52-43.52-18.52a63.58,63.58,0,0,0-17.82,2.72,97,97,0,0,0-52.12,38.41c-2.69,3.86-4.87,7.84-6.84,11.36-3.73,6.7-7,12.5-11.39,14.2a7.17,7.17,0,0,1-2.7.46c-4.14,0-9.12-3.07-15.64-9.77-24.25-24.77-48.08-39.43-82.17-50.68l-1-.34c-6.73-2.16-10.15-4.77-9.74-7.27.52-3.53,8.71-6.71,17-6.71a62,62,0,0,1,7,.34c2.9.34,6.94,1.14,11.09,2,8.08,1.59,17.3,3.52,26.11,3.52s16-1.93,21.55-6c8.29-6,9.53-12.27,11.09-20.23.41-2.15.83-4.31,1.45-6.59,2.07-8.4,2.59-8.52,6.84-9.54a42.28,42.28,0,0,0,6.32-1.93,66.4,66.4,0,0,0,7.36-3.87c4-2.38,8.7-5,11.39-5.34.42,0,.83-.11,1.25-.11,4.35,0,7.46,2.5,10.88,5.23,3.1,2.5,6.32,5.11,10.56,5.68a25.92,25.92,0,0,0,2.91.23c5.8,0,10.88-2.62,15.64-5.23a57.75,57.75,0,0,1,9.33-4.21c6.32-1.93,12-2.38,19.17-2.38h7.87a58.83,58.83,0,0,1,17.72,2.38,141.54,141.54,0,0,1,20.41,8.07v-.57a132.68,132.68,0,0,0-20.31-8.06A75.25,75.25,0,0,0,443.56,43.24Z" transform="translate(10.6 2.93)" fill="#2a40d4" stroke="#fff" stroke-miterlimit="10"/><path d="M473.09,454.56c-3.42,4.21-7.35,9.09-7.15,13.64.11,3.52,3.53,4.09,6.43,4.66a10.71,10.71,0,0,1,2,.45,73.13,73.13,0,0,1,10.15,3.52v-.34A64.81,64.81,0,0,0,474.34,473a17.46,17.46,0,0,1-2.08-.45c-3-.57-6-1.14-6.21-4.32-.21-4.43,3.62-9.2,7-13.41,1.35-1.59,2.49-3.18,3.63-4.77a111.42,111.42,0,0,0,7.56-14.54v-.8a123.26,123.26,0,0,1-7.87,15.23A40,40,0,0,1,473.09,454.56Z" transform="translate(10.6 2.93)" fill="#2a40d4" stroke="#2a40d4" stroke-miterlimit="10"/><path d="M479.1,211.52c-1.24-.91-2.9-2.16-4.66-3.41-2.49-1.93-4.87-3.86-7.46-6a23.64,23.64,0,0,1-1.87-1.59c-4.24-3.75-10.15-8.86-15.54-8.86a8.76,8.76,0,0,0-4.14,1.13c-9.33,5.91-3.73,20-.31,28.52a26.2,26.2,0,0,1,1,2.84c2.39,6,4.36,12.16,6.12,18.3.31,1.25.62,2.61.93,4.09,1.45,6.82,3.52,16.25,8.6,19.66a5.87,5.87,0,0,0,2.59,1h.83c6.22,0,12.43-9.77,17-16.82.83-1.25,1.56-2.5,2.28-3.52v-.57c-.72,1.14-1.55,2.39-2.49,3.86-4.45,7-10.67,16.71-16.78,16.71h-.83a5,5,0,0,1-2.49-1c-5-3.29-7-12.61-8.49-19.43-.31-1.47-.63-3-.94-4.09a163.87,163.87,0,0,0-6.11-18.4c-.31-.91-.72-1.82-1.14-2.84-3.32-8.41-8.81-22.39.21-28.07a8,8,0,0,1,3.94-1.14c5.28,0,11.08,5.12,15.33,8.75.62.57,1.35,1.14,1.87,1.59,2.59,2.16,5,4.21,7.46,6,1.76,1.36,3.41,2.5,4.66,3.41,1.66,1.13,3.31,2.38,5.08,3.63l.51.34v-.34l-.41-.23A55,55,0,0,0,479.1,211.52Z" transform="translate(10.6 2.93)" fill="#2a40d4" stroke="#2a40d4" stroke-miterlimit="10"/><path d="M483.56,452.75c-1.66,2.84-3.63,6.13-3.21,9.65a6.94,6.94,0,0,0,4.14,6v-.34a6.8,6.8,0,0,1-3.83-5.8c-.42-3.41,1.45-6.59,3.21-9.43l.31-.57.31-.68v-.68c-.21.34-.41.79-.62,1.13Z" transform="translate(10.6 2.93)" fill="#2a40d4" stroke="#2a40d4" stroke-miterlimit="10"/><path d="M343.68,19.16c9.12,5.9,19.79,8.75,32.64,8.75,11.81,0,24.14-2.39,36.05-4.66C424,21,436,18.7,447.19,18.7s20.72,2.39,28.7,7.39l4.35,2.72,2.8,1.71v-.91l-2.38-1.48-4.35-2.72c-8.09-5-17.62-7.5-29-7.5-11.19,0-23.31,2.27-34.92,4.54-11.91,2.27-24.24,4.66-35.95,4.66-12.64,0-23.21-2.84-32.22-8.75-6.12-3.86-9-8.07-8.71-12.27a9.4,9.4,0,0,1,1.25-4h-.83a10.87,10.87,0,0,0-1.14,4C334.35,10.75,337.36,15.07,343.68,19.16Z" transform="translate(10.6 2.93)" fill="#2a40d4" stroke="#fff" stroke-miterlimit="10"/><path d="M443.87,279c2.39,1.37,5.7,1.94,8.91,2.5a49.74,49.74,0,0,1,6.84,1.6c1.45.56,2.8,1.25,4.15,1.93,3,1.59,6.53,3.29,9.63,3.29a9,9,0,0,0,1.77-.23l.41-.11c4.46-1.36,6.94-7.16,9-12.5v-.79c-2.07,5.45-4.45,11.59-9,12.95l-.41.11a7.9,7.9,0,0,1-1.66.23c-3.11,0-6.53-1.7-9.54-3.29-1.34-.69-2.79-1.37-4.14-1.94a49.69,49.69,0,0,0-6.84-1.59c-3.21-.56-6.53-1.13-8.81-2.5-5.28-2.95-4.66-8.4-4.14-14.09a36.2,36.2,0,0,0,.31-6.7c-1.35-18.18-8-32.61-14.3-46.7a24.92,24.92,0,0,1-.62-19.66A27.29,27.29,0,0,1,441,176.41a18.07,18.07,0,0,1,6.94-1.36c10.26,0,19.9,8.07,28.39,15.22,2.39,2,4.67,4,6.84,5.57l1.56,1.25v-.34l-1.35-1c-2.07-1.59-4.45-3.52-6.84-5.57-8.49-7.16-18.23-15.23-28.6-15.23a19,19,0,0,0-7,1.37,27.77,27.77,0,0,0-15.75,15.22,25.48,25.48,0,0,0,.62,19.89c6.32,14,12.85,28.4,14.3,46.58a35.46,35.46,0,0,1-.31,6.59C439,270.27,438.49,276,443.87,279Z" transform="translate(10.6 2.93)" fill="#2a40d4" stroke="#2a40d4" stroke-miterlimit="10"/><path d="M445.12,53.93c-8.91,0-18.45,1.7-28.5,3.4-11.29,1.94-23,4.09-35.54,4.09h-2.69A63,63,0,0,1,367.1,60a41.67,41.67,0,0,0-7.57-1.14c-5.49,0-9.53,3-14,10.34A69.9,69.9,0,0,0,340.36,81c-2.69,7.16-5.39,14.66-11.5,19.09-2.07,1.47-6.11,2.72-10.36,4-7.46,2.16-15.85,4.66-17,9.78-1.45,6.47,11.5,15.22,18.44,20,1.35.91,2.38,1.59,3.21,2.16,8.08,6.14,14.82,10.23,21.24,10.23A20.42,20.42,0,0,0,347,146c5.08-.91,9.74-4.66,14.61-11.7a107.5,107.5,0,0,1,57.61-42.38,74.17,74.17,0,0,1,20.62-3.07c18.34,0,31.81,7.61,43.52,16v-.46c-11.71-8.4-25.18-16-43.52-16a70.19,70.19,0,0,0-20.62,3.18A108.23,108.23,0,0,0,361.4,134c-4.77,6.93-9.33,10.57-14.41,11.48a18.73,18.73,0,0,1-2.48.22c-6.32,0-12.95-4.09-21-10.11a30.55,30.55,0,0,0-3.21-2.16c-6.84-4.66-19.69-13.41-18.23-19.65,1-5,9.42-7.39,16.78-9.55,4.25-1.25,8.29-2.5,10.47-4,6.21-4.43,8.91-12,11.6-19.2a64.77,64.77,0,0,1,5.18-11.7c4.35-7.16,8.39-10.11,13.68-10.11a32.82,32.82,0,0,1,7.46,1.13,62.12,62.12,0,0,0,11.29,1.48h2.7c12.53,0,24.24-2.05,35.54-4.09,10-1.71,19.48-3.41,28.39-3.41a50.35,50.35,0,0,1,14.81,1.93,133.54,133.54,0,0,1,23.32,9.77v-.34A127.33,127.33,0,0,0,460,56.08,50.85,50.85,0,0,0,445.12,53.93Z" transform="translate(10.6 2.93)" fill="#2a40d4" stroke="#fff" stroke-miterlimit="10"/><path d="M437,284.92c2.07.57,4.24,1.14,6.32,1.59,11.08,2.62,20.72,4.89,30.25,13.87l.21.22c2.17,2,3.94,3.07,5.28,3.07a1.22,1.22,0,0,0,.62-.11c2.08-.46,3.11-3.52,4.25-7.39.21-.57.31-1.13.52-1.82v-1.13c-.31.91-.62,1.82-.83,2.72-1.14,3.75-2.07,6.6-4,7.16-1.35.34-3.21-.56-5.7-3l-.21-.23c-9.63-9-19.27-11.25-30.46-14-2.07-.46-4.14-1-6.32-1.59-7.77-2.05-6.53-9.55-5.18-16.82a46.39,46.39,0,0,0,.93-9.2c-1.24-16.82-7.56-30.68-13.57-44.09-.73-1.59-1.45-3.18-2.28-4.66-3.94-7.84-7.25-14.66-2.49-23,3.63-6.25,9-11.48,14.3-16.36l2.8-2.73a11.46,11.46,0,0,1,8.19-3c13.05,0,33.15,14.31,44.76,23v-.46c-11.61-8.63-31.61-23-44.76-23a11.48,11.48,0,0,0-8.4,3.07l-2.79,2.73c-5.29,5-10.68,10.11-14.41,16.47-4.87,8.52-1.34,15.68,2.49,23.29.72,1.48,1.55,3.07,2.28,4.66,6.11,13.41,12.33,27.27,13.57,44a44.51,44.51,0,0,1-.93,9.09C430.3,275.15,429,282.88,437,284.92Z" transform="translate(10.6 2.93)" fill="#2a40d4" stroke="#2a40d4" stroke-miterlimit="10"/><path d="M213.54,442c-2.7,4.21-6,9.32-4.87,13a5.3,5.3,0,0,0,3.52,3.29,4.28,4.28,0,0,0,1.14.23c4.15,0,10.57-6.59,16.37-12.27,3.63-3.64,7.05-7.16,9.12-8.07,10-4.66,23.52-6.82,35.54-8.75,4.77-.8,9.22-1.48,13.37-2.27a135.91,135.91,0,0,1,27.14-2.84c28,0,51.4,10.34,69.74,30.68,2.07,2.27,5.07,3.4,8.91,3.4,12,0,32.53-12,46.93-34.2,8.71-13.29,21.25-40.45,8.19-73.06-5.28-13.06-13.06-19.2-24.45-19.2-8.71,0-18.65,3.3-30.26,7.16-14.19,4.66-30.25,10-47.56,10a76.52,76.52,0,0,1-37.82-9.77c-36.88-20.23-38-57.16-34.81-87,1.24-11.59-.73-20.79-5.8-26.59a18.12,18.12,0,0,0-14.1-6.25c-10.56,0-23.93,8.52-28.8,24.77-4.56,15.23,6.22,29.2,18.55,45.34,14,18.18,29.84,38.74,26.73,66.13-1.55,13.63-6.32,26.7-12.95,34.88-5,6.25-9.43,6.82-14.09,7.39-3.53.45-7.26.9-11.61,3.75-3.31,2.15-4.35,5.79-5.39,9.65a25.71,25.71,0,0,1-3.11,7.73c-.82,1.25-2.38,1.48-4,1.82-2.07.34-4.45.79-5.8,3.63-.93,1.94.31,4.21,1.45,6.48.93,1.82,1.87,3.75,1.66,5.34C216.44,437.63,215.09,439.68,213.54,442Zm2.07-11.36c-1-2.16-2.07-4.2-1.45-5.91,1.14-2.5,3.32-2.84,5.28-3.29,1.66-.34,3.32-.57,4.36-2.05A26.84,26.84,0,0,0,227,411.5c1-3.75,2.07-7.27,5.18-9.32,4.25-2.72,7.77-3.18,11.29-3.63,4.77-.57,9.33-1.14,14.51-7.62,6.63-8.4,11.5-21.58,13.05-35.22,3.11-27.72-12.84-48.4-26.83-66.7-12.33-15.9-22.9-29.77-18.44-44.76,4.66-15.91,17.71-24.32,28.18-24.32a17.37,17.37,0,0,1,13.57,6c5,5.68,6.84,14.66,5.7,26.14-3.21,30.11-2.07,67.26,35.13,87.71a77.25,77.25,0,0,0,38.13,9.78c17.4,0,33.57-5.34,47.76-10,11.5-3.87,21.35-7.05,30.05-7.05,11.29,0,18.75,5.8,23.94,18.75,12.95,32.38.51,59.31-8.09,72.49-13.78,21.25-34.5,33.86-46.52,33.86-3.63,0-6.53-1.13-8.39-3.29-18.45-20.57-42.07-30.91-70.15-30.91a137.7,137.7,0,0,0-27.25,2.84c-4.14.8-8.6,1.59-13.37,2.27-12.12,1.94-25.8,4.09-35.74,8.75-2.08,1-5.49,4.32-9.33,8.18-5.7,5.69-12,12-15.95,12a2.51,2.51,0,0,1-.94-.12,4.88,4.88,0,0,1-3.21-2.84c-1-3.29,2.18-8.29,4.77-12.38,1.55-2.39,2.9-4.55,3.21-5.91C217.58,434.57,216.54,432.63,215.61,430.59Z" transform="translate(10.6 2.93)" fill="#2a40d4" stroke="#2a40d4" stroke-miterlimit="10"/><path d="M147.64,443.77c4.77-4.43,12.33-8.29,21.14-12.84,6.11-3.18,14.4-10.91,13.88-17.27-.31-3.52-3-6-8.08-7.73A19.25,19.25,0,0,0,168,405c-6.53,0-13.78,2.16-20.31,4.21-2.9.91-5.7,1.7-8.29,2.27-21.34,5-34.3,7.95-45.8,7.95-10.25,0-19.17-2.38-31-8.18a245.1,245.1,0,0,1-26.11-15c-9.74-6.14-14.19-8.87-20-8.87a32.11,32.11,0,0,0-9.74,1.93v.57A31.81,31.81,0,0,1,16.46,388c5.6,0,10.05,2.73,19.69,8.86a242.51,242.51,0,0,0,26.11,15c11.81,5.8,20.93,8.18,31.19,8.18,11.6,0,24.56-2.95,45.9-7.95,2.59-.57,5.29-1.48,8.29-2.39,6.42-1.93,13.68-4.2,20.2-4.2a21.17,21.17,0,0,1,6.53.91c4.87,1.59,7.46,4,7.67,7.27.52,6.14-7.56,13.63-13.57,16.7-8.81,4.55-16.48,8.41-21.24,13-14.72,13.63-12.33,31.36-7.88,47.26h.52C135.62,474.79,133.24,457.18,147.64,443.77Z" transform="translate(10.6 2.93)" fill="#fff" stroke="#fff" stroke-miterlimit="10"/><path d="M464,417.41a141,141,0,0,1-8.8,18.18c-19.59,31.25-41.45,36.59-64.45,42.15-1.76.46-3.63.8-5.39,1.25-7.67,1.71-15.64,3.41-22.17,7.73a23.66,23.66,0,0,0-4.66,4h.72a21.92,21.92,0,0,1,4.25-3.53c6.32-4.31,14.3-6,22-7.61,1.76-.34,3.62-.79,5.38-1.25,23.21-5.57,45.08-10.91,64.76-42.38,3.42-5.45,6-11.59,8.91-18.29,4.46-10.46,9.54-22.39,16.58-26.25,1.24-.46,2.38-.91,3.52-1.25v-.57a25.88,25.88,0,0,0-3.73,1.36C473.61,394.8,468.43,406.84,464,417.41Z" transform="translate(10.6 2.93)" fill="#2a40d4" stroke="#2a40d4" stroke-miterlimit="10"/><path d="M353.63,478.77c12.53-5.68,23.83-8.53,34.81-11.14,22-5.34,41-9.88,58.44-37.72,2.9-4.66,5.39-10.57,8.08-16.7,5.49-13,11.19-26.37,21.86-31.82,2.59-1,5.18-1.93,7.88-2.73v-.79c-2.8.79-5.49,1.7-8.19,2.72-10.88,5.69-16.58,19.09-22.17,32.16-2.59,6.14-5.08,12-8,16.59-17.2,27.5-36.06,32-57.92,37.38-11,2.62-22.28,5.46-34.92,11.14-8.18,3.75-13.68,8.06-15.95,12.5h.82C340.47,486.38,345.75,482.29,353.63,478.77Z" transform="translate(10.6 2.93)" fill="#2a40d4" stroke="#2a40d4" stroke-miterlimit="10"/><path d="M356.11,452.63c-2-6.36-10.57-11.13-25.59-14.2a148.63,148.63,0,0,0-30-2.95A155.48,155.48,0,0,0,256,442c-2,.57-4,1.25-5.91,1.93C224.73,452.52,210,467,203.49,490.7h.83c6.52-23.3,21-37.5,46.11-46,2-.68,3.93-1.25,5.9-1.82a162.25,162.25,0,0,1,44.24-6.48,155.81,155.81,0,0,1,29.95,3c14.71,3,23.11,7.61,25.07,13.63,1.45,4.66-.93,10.34-7,16.93-6.32,6.82-12.75,13.64-18.55,20.68h.93c5.7-6.81,11.92-13.52,18.14-20.22S357.56,457.63,356.11,452.63Z" transform="translate(10.6 2.93)" fill="#2a40d4" stroke="#2a40d4" stroke-miterlimit="10"/><path d="M297.16,392a3,3,0,0,0,1.34.34c1.87,0,3.73-1.93,5.39-3.52a13.41,13.41,0,0,1,2.59-2.28,5.66,5.66,0,0,1,2.69-.68,9.28,9.28,0,0,1,4.77,1.82l1.87,1a11.34,11.34,0,0,0,4.76,1.25,21.22,21.22,0,0,0,4.67-.68,29.48,29.48,0,0,1,5.28-.91h.21c4,0,7.77,2.16,11.29,4.21s7.25,4.2,11.19,4.2a10.6,10.6,0,0,0,5.6-1.48,17,17,0,0,0,3.62-2.61c1.66-1.36,3.11-2.61,5.49-2.61a7.78,7.78,0,0,1,2.28.34c6.84,1.59,9.85,8.06,12.75,14.31a48.37,48.37,0,0,0,4.56,8.3c3.52,4.88,8.18,7.5,12.95,7.5h.21c4.76-.12,9.43-2.84,12.95-7.62,4.87-6.59,13.57-27.95,9.95-38.51a8.6,8.6,0,0,0-6.12-5.91,24.8,24.8,0,0,0-3-.46c-3.11,0-5.39,1.48-8.08,3.07-.63.34-1.25.8-1.87,1.14-5.49,3.18-10.88,3.86-16.58,4.54-2.28.23-4.56.57-6.94,1a42.15,42.15,0,0,0-7.25,2.39c-3,1.25-5.81,2.27-8.91,2.27a13.77,13.77,0,0,1-6.32-1.59c-4.36-2.16-9.12-4.2-14.41-4.2a21.25,21.25,0,0,0-5.28.68l-2.38.57a39.12,39.12,0,0,1-8.81,1.59,16,16,0,0,1-6.84-1.59l-.93-.46c-4-1.93-8.19-3.86-12.44-3.86a12.73,12.73,0,0,0-6.63,1.82c-2.69,1.48-6.21,7.84-6.21,12.38A6,6,0,0,0,297.16,392Zm4.24-16.36a12.61,12.61,0,0,1,6.32-1.71c4.15,0,8.19,1.93,12.23,3.86l.93.46a16.57,16.57,0,0,0,7.05,1.59,35.56,35.56,0,0,0,9-1.59l2.39-.57a19.64,19.64,0,0,1,5.07-.68c5.18,0,9.85,2,14.2,4.2a14.22,14.22,0,0,0,6.53,1.59c3.21,0,6.11-1.13,9.11-2.38a31.18,31.18,0,0,1,7.15-2.27c2.39-.46,4.67-.69,6.84-1,5.81-.68,11.19-1.36,16.79-4.54l1.86-1.14c2.59-1.59,4.87-2.95,7.88-2.95a12.48,12.48,0,0,1,2.9.34,7.91,7.91,0,0,1,5.8,5.57c3.63,10.45-5.08,31.58-9.84,38.06-3.42,4.66-7.88,7.27-12.54,7.39h-.41c-4.56,0-9-2.62-12.54-7.28a48.52,48.52,0,0,1-4.46-8.29c-2.9-6.36-6-13-13.05-14.66a8.56,8.56,0,0,0-2.38-.34c-2.6,0-4.05,1.25-5.81,2.73a15.65,15.65,0,0,1-3.52,2.5,11.21,11.21,0,0,1-5.39,1.36c-3.83,0-7.35-2-11-4.09s-7.46-4.32-11.61-4.32h-.31a23.42,23.42,0,0,0-5.49.91,20.25,20.25,0,0,1-4.56.8,8.66,8.66,0,0,1-4.45-1.14l-1.87-1a9.91,9.91,0,0,0-5.08-1.82,5.12,5.12,0,0,0-2.9.8,11.66,11.66,0,0,0-2.69,2.38c-1.55,1.59-3.32,3.41-5,3.41a1.92,1.92,0,0,1-1.14-.34,4.27,4.27,0,0,1-2-4c-.11-4.43,3.62-10.45,5.9-11.81Z" transform="translate(10.6 2.93)" fill="#2a40d4" stroke="#2a40d4" stroke-miterlimit="10"/><path d="M228.67,430.59a11.61,11.61,0,0,0,3.42.23c3.21,0,15.23-.46,33.88-6.82a162,162,0,0,1,51.49-8.18c28.91,0,48.08,4.43,72.84,28.75a9.49,9.49,0,0,0,6.95,2.61c10.77,0,27-12.05,37-27.38,7.77-12.05,19.17-36.48,7.46-65.79-5.08-12.62-11.4-14.32-17.51-14.32-7.57,0-17,3.07-27.88,6.7-14.71,4.89-31.39,10.34-49.94,10.34a84.07,84.07,0,0,1-41.44-10.68c-41.45-22.72-42-65-38.76-94.76,1-9.2-.41-16.59-3.93-20.57a10.82,10.82,0,0,0-8.4-3.63c-7.87,0-17.82,6.59-21.55,19.2-3.31,11.36,6.22,23.86,17.31,38.18,14.19,18.41,31.81,41.24,28.39,71.81a82,82,0,0,1-6.74,24.77,93.48,93.48,0,0,1-22,30.79A109.7,109.7,0,0,1,233,423.89c-3.94,2.5-6.32,4.09-6.22,5.22C227,429.79,227.53,430.25,228.67,430.59Zm4.56-6.14a109,109,0,0,0,16.26-12,95.6,95.6,0,0,0,22.07-30.91,82.13,82.13,0,0,0,6.84-24.88c3.42-30.91-14.19-53.86-28.49-72.26-11-14.32-20.52-26.71-17.2-38,3.73-12.49,13.47-19,21.24-19a10.3,10.3,0,0,1,8.18,3.52c3.42,4,4.87,11.14,3.84,20.34-3.21,29.88-2.59,72.38,39,95.1a84.46,84.46,0,0,0,41.55,10.68c18.54,0,35.23-5.56,50-10.45,10.88-3.63,20.31-6.7,27.77-6.7,6,0,12.23,1.7,17.2,14.2,11.71,29.09.31,53.4-7.46,65.45-9.74,15-26.21,27.27-36.78,27.27a9.36,9.36,0,0,1-6.74-2.5c-12-11.82-23.1-19.32-35.12-23.64-10.26-3.75-21.66-5.22-37.93-5.22a162.78,162.78,0,0,0-51.6,8.29c-18.65,6.37-30.56,6.82-33.77,6.82a15.66,15.66,0,0,1-3.32-.23c-.93-.22-1.45-.57-1.55-.91-.11-1.13,2.38-2.72,6-5Z" transform="translate(10.6 2.93)" fill="#2a40d4" stroke="#2a40d4" stroke-miterlimit="10"/><path d="M254,234.7c-5.7,0-11.92,5.91-14,11.25-1.35,3.52-.31,9.54,2.8,16.13,2.9,6.14,6.84,10.91,9.63,11.82a4.64,4.64,0,0,0,1.35.23,6.08,6.08,0,0,0,1.45-.23c3.73-1.36,3.63-3.63,3.42-8.75a97.3,97.3,0,0,1,.31-13.41c.83-8-.31-14-2-15.79A3.24,3.24,0,0,0,254,234.7Zm4.45,16.93a73.31,73.31,0,0,0-.31,13.41c.21,5.11.21,7-3.11,8.18a4.19,4.19,0,0,1-2.38,0c-2.69-.8-6.53-5.45-9.32-11.59-3-6.48-4-12.27-2.8-15.68,2-5.11,8-10.91,13.47-10.91a3,3,0,0,1,2.59,1C258.09,238,259.23,243.79,258.4,251.63Z" transform="translate(10.6 2.93)" fill="#2a40d4" stroke="#2a40d4" stroke-miterlimit="10"/><path d="M382.43,392.75a12,12,0,0,1,2.69,1.37l1.14.68a63.1,63.1,0,0,1,10.57,7,5.65,5.65,0,0,0,3.63,1.82c1.45,0,2.28-1.25,3-2.5,2.59-4.54,3.53-8,4.56-14.09a3,3,0,0,0-.41-2.5c-.73-.91-2.28-1.13-4.56-.45a153.72,153.72,0,0,1-17,3.86l-3.11.57a2.39,2.39,0,0,0-2.07,1.93A2.32,2.32,0,0,0,382.43,392.75Zm.62-3.41a28.2,28.2,0,0,1,3.21-.56c5.81-1.14,10.26-2,17.1-4a7,7,0,0,1,2.07-.34,2.06,2.06,0,0,1,1.76.57,2.33,2.33,0,0,1,.31,2c-1,6-2,9.43-4.45,13.86-.73,1.25-1.45,2.16-2.49,2.16a5.64,5.64,0,0,1-3.21-1.7,69.06,69.06,0,0,0-10.67-7.16l-1.14-.68a13.21,13.21,0,0,0-2.8-1.37c-.83-.34-1.24-.79-1.14-1.36A1.75,1.75,0,0,1,383.05,389.34Z" transform="translate(10.6 2.93)" fill="#2a40d4" stroke="#2a40d4" stroke-miterlimit="10"/><path d="M284.93,404.23c1.24,0,2.49-.11,3.73-.23a312.29,312.29,0,0,1,32.53-1.82c5.7,0,11.4.23,17.1.8,24.45,2.73,45.49,14.66,55.64,25.34a8.76,8.76,0,0,0,6.63,2.95c5.7,0,12.64-5,19.07-13.86,11.4-15.45,14.81-45,9.22-56.7-1.45-3.07-3.63-4.77-6-4.77h-.62c-4.46.45-10.57,2.38-18.45,4.66-14.71,4.31-34.81,10.45-56.57,10.79-18.65.34-39.89-7.27-47.14-10.91a13.17,13.17,0,0,0-5-1.7c-2.07,0-2.28,2.16-2.38,5.57a47.46,47.46,0,0,1-1.55,10.9,145.15,145.15,0,0,1-7.15,18.3c-2.18,4.88-3.53,7.72-2.59,9.32C281.82,403.89,282.86,404.23,284.93,404.23Zm-.83-10.34a144.09,144.09,0,0,0,7.15-18.29,43.72,43.72,0,0,0,1.66-11c.2-3.4.2-5.34,2.07-5.34a13.22,13.22,0,0,1,4.87,1.71c7.15,3.52,27.77,10.91,46.21,10.91h1c21.86-.34,42-6.48,56.67-10.91,7.88-2.39,14-4.21,18.45-4.66,2.59-.23,4.76,1.25,6.32,4.54,5.59,11.59,2.07,41-9.12,56.36-6.42,8.75-13.26,13.75-18.86,13.75a8.39,8.39,0,0,1-6.32-2.84c-10.15-10.68-31.39-22.72-55.85-25.45-5.69-.57-11.39-.8-17.09-.8a313.18,313.18,0,0,0-32.64,1.82c-1.24.11-2.38.23-3.63.23-1.86,0-3-.34-3.42-1.14-.93-1.25.31-4.09,2.49-8.86Z" transform="translate(10.6 2.93)" fill="#2a40d4" stroke="#2a40d4" stroke-miterlimit="10"/><path d="M194.68,304.92a3.34,3.34,0,0,0-2-1c-1.45,0-2.48,1.93-4.14,4.88a54.85,54.85,0,0,1-7.77,11.48l-1.14,1.25c-4.46,4.77-6.43,7.05-5.91,8.18.21.57.93.8,2.18.8a46.67,46.67,0,0,0,5.49-.57,32.73,32.73,0,0,1,3.42-.23c9.22,0,16.89,5.34,22.48,9.2,3.32,2.28,5.91,4.1,7.77,4.1a2.38,2.38,0,0,0,1.87-.91C222.86,334.24,202.35,312.08,194.68,304.92Zm21.86,36.7a1.91,1.91,0,0,1-1.45.8c-1.65,0-4.25-1.71-7.46-4-5.7-3.86-13.47-9.32-22.79-9.32-1.14,0-2.28.12-3.53.23a44.64,44.64,0,0,1-5.38.57c-1,0-1.56-.12-1.76-.46-.32-.79,2.07-3.52,5.8-7.61l1.14-1.25A52.23,52.23,0,0,0,188.88,309c1.45-2.73,2.49-4.66,3.63-4.66a2.65,2.65,0,0,1,1.55.8C203.8,314.24,221.83,334.8,216.54,341.62Z" transform="translate(10.6 2.93)" fill="#2a40d4" stroke="#2a40d4" stroke-miterlimit="10"/><path d="M194.78,314c-3.73,0-8.49,6-8.49,8.86a1.76,1.76,0,0,0,1.66,1.94h.31c5.49.11,11.29,3.63,15.44,6.24,2.48,1.6,4.35,2.62,5.38,2.62h0a1.14,1.14,0,0,0,.83-.34,1.35,1.35,0,0,0,.31-1.25c-.41-5.23-10.05-15.8-14-17.73A3.38,3.38,0,0,0,194.78,314Zm14.61,18.18c0,.46,0,.68-.1.68s-.1.12-.31.12h0c-.83,0-2.8-1.14-5-2.5-4.25-2.62-10.16-6.25-15.86-6.37-.83,0-1.24-.34-1.24-1.13,0-2.5,4.46-8.18,7.77-8.18a2.9,2.9,0,0,1,1,.22C200.07,317.31,209.08,327.42,209.39,332.19Z" transform="translate(10.6 2.93)" fill="#2a40d4" stroke="#2a40d4" stroke-miterlimit="10"/><path d="M181.63,215.16h0c.93,0,1.65-1.37,2.38-4.32,2.69-11.13,11.5-25.91,25.18-33.75s23.1-10,28-11.13c2.49-.57,3.73-.8,4-1.48a.91.91,0,0,0-.1-.91c-.93-1.82-18-11.59-42.69-13.63l-1-.12a59.51,59.51,0,0,0-6-.34c-6.43,0-11.61,1.82-23.73,12.39-1.87,1.7-3.84,3.18-5.8,4.66-5.81,4.66-10.88,8.63-10.57,13.06.2,3.53,3.62,6.93,10.57,10.8,7.66,4.32,12.33,13,15.43,18.63C179.14,212.77,180.38,215.16,181.63,215.16Zm-19.69-25c-6.74-3.86-10.16-7.27-10.36-10.57-.31-4.31,4.66-8.29,10.46-12.84,1.87-1.47,3.84-3.06,5.8-4.65,12-10.46,17.2-12.28,23.53-12.28a57.63,57.63,0,0,1,5.9.34l1,.12c24,2,41.55,11.82,42.48,13.52a.62.62,0,0,1,.1.57c-.2.57-1.55.79-3.73,1.36-5,1.14-14.19,3.18-28.08,11.14s-22.58,22.72-25.28,33.86c-.62,2.72-1.35,4.09-2.07,4.09h0c-1,0-2.38-2.62-4.25-5.8-3.11-5.79-7.87-14.43-15.54-18.86Z" transform="translate(10.6 2.93)" fill="#2a40d4" stroke="#2a40d4" stroke-miterlimit="10"/><path d="M183.7,233.91c.93,0,1.55-1.14,2-3.53,2.79-15,8.7-36.24,28.7-47.6a90.15,90.15,0,0,1,21.34-8.53,17.4,17.4,0,0,0,5.08-2.84c2.18-1.47,4.45-3.07,6.63-3.07a1.56,1.56,0,0,1,.73.12,6,6,0,0,1,3,1.59,5.49,5.49,0,0,0,3.11,1.48,3.13,3.13,0,0,0,1.45-.34,4.29,4.29,0,0,0,1.86-1.82,2.75,2.75,0,0,1,3-1.71c1.76.12,2.8,1.59,3.73,3.07a7.45,7.45,0,0,0,2.49,2.73,6.89,6.89,0,0,0,3.31.91,2.1,2.1,0,0,0,1.76-.68,2.26,2.26,0,0,0,.21-1.82c-.72-2.62-6.11-5-9.64-6.59-1-.46-2-.91-2.48-1.14-5.29-2.84-10.57-5.34-15-7.38-18.85-8.41-36-13.64-52.42-15.8a35.85,35.85,0,0,0-4.87-.34c-8.09,0-14.41,3.64-26.94,15.57a115.49,115.49,0,0,1-9.33,7.84c-6.84,5.45-12.23,9.77-12.12,15.22.1,4.32,3.73,8.87,11.39,14.32,12.33,8.86,20.52,22.38,25.91,31.25C179.86,230.27,182,233.91,183.7,233.91Zm-32.95-40.68c-7.57-5.46-11.19-9.89-11.3-14.09-.1-5.23,5.19-9.55,12-14.89,3.11-2.5,6.22-5,9.33-7.95,12.43-11.93,18.65-15.57,26.73-15.57a36.24,36.24,0,0,1,4.87.34c16.48,2.16,33.57,7.28,52.33,15.8,4.45,2,9.74,4.43,15,7.27.62.34,1.45.68,2.59,1.25,3.52,1.59,8.81,4,9.43,6.36a1.74,1.74,0,0,1-.1,1.59,1.93,1.93,0,0,1-1.56.57,6.55,6.55,0,0,1-3.21-.91,9.16,9.16,0,0,1-2.38-2.61c-1-1.48-2.08-2.95-4-3.18a3.15,3.15,0,0,0-3.32,1.93,3.86,3.86,0,0,1-1.66,1.59,2.76,2.76,0,0,1-1.34.23,4.51,4.51,0,0,1-2.91-1.37,6.08,6.08,0,0,0-3-1.59c-.21,0-.52-.11-.73-.11-2.17,0-4.55,1.59-6.73,3.18a18.34,18.34,0,0,1-5,2.84,90.36,90.36,0,0,0-21.35,8.52c-20.1,11.48-26.11,32.84-28.91,47.84-.41,2.27-.93,3.3-1.66,3.3-1.45,0-3.73-3.75-6.83-9C171.37,215.61,163.08,202.09,150.75,193.23Z" transform="translate(10.6 2.93)" fill="#2a40d4" stroke="#2a40d4" stroke-miterlimit="10"/><path d="M222.86,370.71a23.05,23.05,0,0,0,17.41-13.07c3-6.47,4.66-17.5-4.77-32.95-4-6.7-8.49-13.41-12.74-19.88C210.53,286.17,199,268.56,194.27,251c-5.39-20-1-36.47,13.57-51.81,12.74-13.3,29.53-21,46.11-21,12.43,0,23.52,4.54,31.29,12.72,8.5,9,12.74,22.16,12.23,37.95-.11,3.64-.31,7.5-.42,11.48-.62,14.32-1.34,30.56.93,44.09,2.59,15.56,8.71,25.11,18.76,29.31a38.72,38.72,0,0,0,15.13,3.41,24.9,24.9,0,0,0,20.93-11c8.8-12.27,11-33.29,5.28-52.27-12.23-40.79-41.44-65.11-84.76-91.24-32.95-19.77-60.61-25.91-85.79-29.54a40.91,40.91,0,0,0-5.28-.46c-10.47,0-15.44,5.46-21.76,12.39a101.73,101.73,0,0,1-8.08,8.29,64.41,64.41,0,0,1-9.43,6.93c-4.46,2.84-8.29,5.23-12.44,11.71-8.39,12.84,2.8,20.68,14.61,29,6.22,4.32,12.75,9,16.17,14.32,21.76,33.86,13,70-2.49,92.49-4.46,6.47-10.88,12.5-17.72,19-8.39,7.84-17,16-22,25.11-2.08,3.87-2.7,6.59-1.87,8.07q.93,1.71,4.35,1.71h0c4,0,10.57-1.71,18-3.75,10.57-2.84,23.63-6.37,35.23-6.37a38.87,38.87,0,0,1,15.65,3A51.08,51.08,0,0,1,201.73,362c5.7,4.55,11,8.86,18.65,8.86A9,9,0,0,0,222.86,370.71Zm-32.12-16.48a35.87,35.87,0,0,0-15.75-3c-11.6,0-24.76,3.52-35.22,6.36-7.47,2.05-14,3.75-17.93,3.75h0c-2.07,0-3.52-.45-4-1.47-.83-1.48-.21-4,1.86-7.73,4.87-9,13.58-17.16,21.87-25,6.84-6.48,13.26-12.5,17.71-19a88.35,88.35,0,0,0,15.44-43.52c1.25-17.5-3.21-34.09-13-49.31-3.52-5.46-9.95-10-16.27-14.44-11.7-8.18-22.69-16-14.5-28.51,4.14-6.37,8-8.75,12.33-11.59a54.89,54.89,0,0,0,9.53-7,115.29,115.29,0,0,0,8.08-8.29c6.22-6.93,11.19-12.28,21.55-12.28a27.74,27.74,0,0,1,5.29.46c25.07,3.64,52.84,9.77,85.69,29.54,43.21,26,72.42,50.34,84.55,91,5.7,18.87,3.52,39.77-5.18,52a24.67,24.67,0,0,1-20.73,10.91,38.23,38.23,0,0,1-15-3.41c-9.95-4.2-16.06-13.63-18.55-29.08-2.28-13.53-1.55-29.66-.93-44,.21-4.09.31-7.84.41-11.59.52-15.9-3.83-29.2-12.33-38.29-7.77-8.18-19-12.72-31.49-12.72-16.69,0-33.58,7.61-46.32,21-7.77,8.18-12.64,16.59-14.71,25.79-1.87,8.18-1.56,16.82,1,26.36,4.77,17.73,16.27,35.34,28.6,54,4.25,6.59,8.7,13.3,12.75,19.89,9.32,15.45,7.77,26.24,4.76,32.61a22.65,22.65,0,0,1-17.2,12.84,17.24,17.24,0,0,1-2.38.11c-7.46,0-12.75-4.2-18.45-8.75A59.41,59.41,0,0,0,190.74,354.23Z" transform="translate(10.6 2.93)" fill="#2a40d4" stroke="#2a40d4" stroke-miterlimit="10"/><path d="M229.81,357.19a12.12,12.12,0,0,0,4.87-8.64c1.24-10.68-8-26.36-16.27-36.47-10.36-12.61-20.62-26.13-25.7-39.31-.41-1.6-.83-3.07-1.14-4.66-1.66-7.73-4.35-20.68-8.29-20.68a1.62,1.62,0,0,0-1,.34c-1.66,1-2.08,2.95-1.45,6a48.91,48.91,0,0,0,2.79,7.84c1.14,2.73,2.08,5,2.08,6.25,0,3.41-1.56,4.89-3,6.25a9,9,0,0,0-2.8,4.32c-.51,2.61.52,4.54,1.45,6.47s1.87,3.53,1.56,5.91c-.52,4.21-13.68,19.66-25.28,33.18-9.54,11.25-17.93,20.91-17.72,22.72,0,.12.1.23.1.35.83.68,2.28,1,4.46,1h0a92.33,92.33,0,0,0,13.68-1.71C164.84,345.26,172.4,344,179,344c5.18,0,9,.79,11.81,2.27,1.55.8,3.21,1.82,5,3,7.88,4.78,17.82,10.57,26.11,10.57A13.26,13.26,0,0,0,229.81,357.19ZM191,345.94c-2.8-1.59-6.73-2.39-11.91-2.39-6.64,0-14.2,1.25-20.93,2.39a92.64,92.64,0,0,1-13.68,1.7h0c-2.07,0-3.52-.34-4.25-.91v-.11c-.1-1.7,8.5-11.82,17.61-22.5,11.61-13.63,24.77-29,25.39-33.4a9,9,0,0,0-1.66-6c-.93-1.82-2-3.75-1.45-6.25a7.55,7.55,0,0,1,2.7-4.09,8.48,8.48,0,0,0,3.21-6.59c0-1.37-.94-3.75-2.07-6.37a48.94,48.94,0,0,1-2.8-7.84c-.62-2.84-.21-4.66,1.34-5.56a1.61,1.61,0,0,1,.94-.35c3.62,0,6.42,13.3,8,20.46a39.29,39.29,0,0,0,1.14,4.77c5.07,13.07,15.33,26.7,25.8,39.31,8.28,10.12,17.51,25.68,16.26,36.25a11.64,11.64,0,0,1-4.76,8.41,12,12,0,0,1-7.77,2.38c-8.29,0-18-5.9-26-10.56C194.16,347.64,192.4,346.73,191,345.94Z" transform="translate(10.6 2.93)" fill="#2a40d4" stroke="#2a40d4" stroke-miterlimit="10"/><path d="M226.18,343.55c.93-9-8.39-23.06-13.16-28.52a251.86,251.86,0,0,1-17.41-22.61c-3.73-5.22-5.7-8.06-7-8.06-.93,0-1.45,1.25-1.66,4.2-2.28,22.16-16.27,34.2-24.66,41.47-3.63,3.18-6.11,5.23-6.22,6.93a1.76,1.76,0,0,0,.52,1.37,5.14,5.14,0,0,0,3.83,1.25,35.26,35.26,0,0,0,7.67-1.14,69.47,69.47,0,0,1,12.85-1.59c6.22,0,11.19,1.59,15.23,4.89,5.7,4.54,14.2,9.43,20.93,9.43h0a9.79,9.79,0,0,0,6.11-1.82A8,8,0,0,0,226.18,343.55Zm-9.12,7.16h0c-6.53,0-15-4.88-20.72-9.43-4.15-3.29-9.22-4.88-15.44-4.88A70.53,70.53,0,0,0,168,338a59.89,59.89,0,0,1-7.57,1.13,4.82,4.82,0,0,1-3.62-1.13,1.41,1.41,0,0,1-.42-1.14c.11-1.59,2.59-3.75,6.12-6.7,8.39-7.28,22.38-19.32,24.76-41.59.31-2.73.73-3.86,1.35-3.86,1.14,0,3.31,2.95,6.84,7.95a269.26,269.26,0,0,0,17.51,22.61c4.66,5.34,14,19.43,13.05,28.29a7.4,7.4,0,0,1-2.9,5.46A9.71,9.71,0,0,1,217.06,350.71Z" transform="translate(10.6 2.93)" fill="#2a40d4" stroke="#2a40d4" stroke-miterlimit="10"/><path d="M317,253.79c-1,17,3.62,28.86,8.49,34.09,2.18,2.38,4.67,3.75,6.84,3.75h0c3.11,0,5.39-2.5,6.53-7.05,7.25-29.2-17.41-60-20.52-62.6-.93-.8-1.45-.8-1.86-.46-.73.8-.52,3.41-.11,8.18A156.39,156.39,0,0,1,317,253.79ZM316.84,222s.11-.12.21-.12a2.06,2.06,0,0,1,.93.57c3,2.5,27.46,33.06,20.31,62-1,4.32-3.21,6.59-6,6.59h0c-2.07,0-4.35-1.25-6.42-3.64-4.77-5.22-9.43-16.81-8.4-33.74a170,170,0,0,0-.51-24.09C316.53,225.61,316.32,222.66,316.84,222Z" transform="translate(10.6 2.93)" fill="#2a40d4" stroke="#2a40d4" stroke-miterlimit="10"/><path d="M442.63,61.88c-8.29,0-17.51,1.59-27.25,3.29-11.71,2-23.62,4.09-36.78,4.09h-2.8l-2.28-.11c-2,0-3.83-.11-5.7-.11-11.29,0-18.24,2.38-22.9,14.88-2.9,7.84-6.22,16.82-14.09,22.61-2.28,1.59-4.46,3.07-6.42,4.21-4.56,2.84-8.19,5.11-8.4,8.18-.1,2.84,2.7,6.25,9.12,11.13,6.11,4.66,11.19,6.93,15.54,6.93h1.14c6.22-.56,10.36-5.9,15.65-12.49,2.59-3.41,5.39-6.59,8.29-9.78a113.16,113.16,0,0,1,49-29.88,76.33,76.33,0,0,1,22.59-3.41c18,0,32,6.71,43.51,14.43v-.22c-11.5-7.73-25.49-14.44-43.51-14.44a80.9,80.9,0,0,0-22.7,3.41,114.43,114.43,0,0,0-49.11,30,120,120,0,0,0-8.29,9.77c-5.18,6.59-9.32,11.82-15.44,12.39h-1.14c-4.14,0-9.22-2.16-15.33-6.82-6.32-4.77-9.12-8.18-9-10.91.11-3,3.73-5.11,8.19-8,2-1.25,4.25-2.62,6.53-4.32C339,101,342.33,92,345.34,84c4.56-12.28,11.5-14.55,22.58-14.55,1.77,0,3.63,0,5.7.12l2.28.11h2.8c13.16,0,25.18-2.16,36.78-4.21,9.74-1.7,18.86-3.29,27.15-3.29a45,45,0,0,1,12.85,1.7c8.18,2.39,16.68,6.37,25.38,11V74.6c-8.7-4.65-17.09-8.52-25.28-10.9A45.77,45.77,0,0,0,442.63,61.88Z" transform="translate(10.6 2.93)" fill="#2a40d4" stroke="#fff" stroke-miterlimit="10"/><path d="M308.66,252.77c-1.25,16.59,2,30,8.91,37.72,3.62,4.09,8.18,6.25,12.64,6.25h0c6.42,0,11.6-4.54,13.16-11.7,4.45-20.68-2.49-39.43-9-51.47-7.77-14.09-17.61-24.09-22.38-27.39-1.76-1.13-3-1.93-3.73-1.93a1,1,0,0,0-.62.23c-.62.68-.31,2.72.1,6.7A192.42,192.42,0,0,1,308.66,252.77Zm-.83-48a.51.51,0,0,1,.41-.23c.62,0,1.87.8,3.53,1.93,10.77,7.39,39.37,41,31.29,78.52-1.45,6.93-6.53,11.47-12.75,11.47-4.45,0-8.81-2.16-12.43-6.25-6.94-7.72-10.05-21-8.91-37.49a198.29,198.29,0,0,0-.93-41.48C307.62,207.66,307.31,205.39,307.83,204.82Z" transform="translate(10.6 2.93)" fill="#2a40d4" stroke="#2a40d4" stroke-miterlimit="10"/><path d="M302.54,253.9c-1.24,20.57,2.59,36.93,10.78,45.79,4.25,4.66,9.43,7.05,14.82,7.05h0c10.46,0,19.37-8.75,22.17-21.7,4-19.21.52-38.07-10.36-56.13-11.09-18.3-26.32-30.11-34.51-35.57-4.14-2.72-5.9-3.86-6.63-3.07s-.2,2.73.52,6.59C301.09,205.5,304.41,223.23,302.54,253.9Zm-3.31-63.4c.1-.11.21-.23.41-.11.83,0,2.7,1.25,5.8,3.29,27.05,18.07,53.06,51.59,44.66,91.36-2.69,12.84-11.5,21.47-21.86,21.47-5.39,0-10.47-2.38-14.61-6.93-8.08-8.86-11.92-25.11-10.67-45.56,1.86-30.57-1.45-48.52-3-57-.72-3.75-1.14-5.91-.72-6.48Z" transform="translate(10.6 2.93)" fill="#2a40d4" stroke="#2a40d4" stroke-miterlimit="10"/><path d="M180.38,185.39c3,0,5.18-3,7.46-7.5,4-7.84,12.44-11.59,17-13.64,2.27-1,3.21-1.36,3-2s-.73-.8-3.83-1c-9.43-.69-30.47,8.52-32.95,15.45a3.5,3.5,0,0,0,1.24,4.2c3.73,3.18,6.11,4.55,8.08,4.55Zm-8.6-8.3c2.18-6.36,21.86-15,31.29-15H204a13.4,13.4,0,0,1,3,.34,26.33,26.33,0,0,1-2.49,1.25c-4.55,2-13.15,5.9-17.3,14-2.59,5.12-4.56,7.05-6.84,7.05-1.86,0-4.14-1.25-7.67-4.21a3.33,3.33,0,0,1-.93-3.41Z" transform="translate(10.6 2.93)" fill="#2a40d4" stroke="#2a40d4" stroke-miterlimit="10"/><path d="M189.6,185.05c7.26-13.52,20.42-18.3,31.19-20.91,1-.23,1.14-.79,1-1.14-.21-2.15-10.26-6.47-25.18-6.47-1.66,0-3.42,0-5.18.11-6.84.46-22.9,10.23-28.7,17.5-1.56,1.93-2.18,3.41-2.07,4.66.41,2.95,3,4.32,6,5.91,3.21,1.59,6.83,3.52,8.6,7.84q1.55,3.75,4,3.75C182.14,196.41,185.56,192.55,189.6,185.05Zm-13.78,7.38c-1.86-4.54-5.59-6.36-8.8-8.06-2.91-1.48-5.39-2.73-5.7-5.46-.11-1,.52-2.5,1.86-4.2,5.7-7.16,21.66-16.82,28.39-17.27,1.66-.12,3.42-.12,5.08-.12,14.71,0,24.45,4.21,24.66,5.91,0,.23-.41.46-.73.46-10.77,2.61-24.14,7.38-31.49,21.13-6,11.36-10.57,14.09-13.27,7.61Z" transform="translate(10.6 2.93)" fill="#2a40d4" stroke="#2a40d4" stroke-miterlimit="10"/><path d="M329.38,278.56h0c.52,0,1-.45,1.45-1.14,2.07-4,2.07-17.72-3.42-26.13-.72-1.14-1.76-.91-2.49.46-2.07,3.63-2.9,15.22,2.7,25.33C328.14,278,328.65,278.56,329.38,278.56ZM325.44,252c.31-.45.52-.79.83-.79a.63.63,0,0,1,.52.34c5.28,8.07,5.39,21.59,3.42,25.34-.21.45-.52.79-.83.79s-.73-.45-1.14-1.25C322.75,266.86,323.58,255.38,325.44,252Z" transform="translate(10.6 2.93)" fill="#2a40d4" stroke="#2a40d4" stroke-miterlimit="10"/><path d="M448.74,484.67c-.62,0-1.65.12-2.9.12-2.17.11-5.18.34-8.18.34q-11,0-11.5-3.75c-.42-3.75,8.18-9.2,13.78-12.84A50.5,50.5,0,0,0,445,465a110.12,110.12,0,0,0,19.38-23.52c3.83-6.14,6.63-12.73,9.64-19.77a38.07,38.07,0,0,1,10.46-14.55V407a38.81,38.81,0,0,0-10.78,14.77c-3,6.93-5.8,13.52-9.63,19.65a109,109,0,0,1-19.27,23.41c-1.66,1.25-3.32,2.39-5.08,3.52-6.11,3.87-14.4,9.21-14,13.18.31,2.73,4.15,4,11.81,4,3,0,6-.23,8.19-.34,1.24-.11,2.28-.11,2.9-.11a78.53,78.53,0,0,1,30.15,5.56h.83A77.77,77.77,0,0,0,448.74,484.67Z" transform="translate(10.6 2.93)" fill="#2a40d4" stroke="#2a40d4" stroke-miterlimit="10"/><path d="M213.83,32.56a19.29,19.29,0,0,0,5.08-.68c2-.45,3.84-.91,5.49-1.13,2.8-.35,5.6-.57,8.09-.69a15.68,15.68,0,0,0,7.66-2.38c9.85-5.91,14-18.07,15.34-23.07l.93-3.41h-.31c-.31,1.14-.62,2.16-.93,3.3-1.35,4.88-5.39,16.93-15.23,22.84a16,16,0,0,1-7.57,2.27c-2.38.11-5.18.34-8.08.68-1.66.23-3.52.68-5.49,1.14a25.06,25.06,0,0,1-5,.68c-2.38,0-3.93-.57-5-1.93-1.55-1.93-1.76-5.23-.62-10.57l.21-.91c1.45-7.38,3.83-13.07,7.66-17.5h-.41c-3.73,4.43-6.22,10.12-7.56,17.5l-.21.91c-1,5.45-.83,9,.72,10.91C209.69,31.88,211.35,32.56,213.83,32.56Z" transform="translate(10.6 2.93)" fill="#2a40d4" stroke="#2a40d4" stroke-miterlimit="10"/><path d="M445.12,69.49c-7.67,0-16.58,1.59-26,3.18-11.92,2-24.25,4.21-38,4.21h-3l-2.38-.12c-2,0-3.73-.11-5.5-.11-14.81,0-15.64,8.41-16.37,17.27-.41,4.89-.83,9.89-3.52,14.2-.93,1.59-3.42,3.53-6.11,5.57-5.7,4.32-12,9.32-9,14a5.4,5.4,0,0,0,4.77,3,6.55,6.55,0,0,0,3.21-.91c5-2.61,10.36-10.56,14.71-16.81,2.49-3.64,4.56-6.71,5.7-7.39a6.9,6.9,0,0,1,3.73-.79H370a7,7,0,0,0,5.28-1.82c2-1.93,2.28-4.32,2.49-6.71.2-2.16.41-4.09,1.76-5.79,4.14-5.11,18.65-8.64,28.29-11,2.79-.68,5.28-1.25,7-1.82a85.89,85.89,0,0,1,24.66-3.64c17.72,0,31.92,6,43.52,13.07v-.68c-11.6-7.16-25.8-13.07-43.52-13.07a86.78,86.78,0,0,0-24.76,3.86c-1.76.57-4.25,1.14-7.05,1.82-10.26,2.5-24.35,5.91-28.6,11.14-1.45,1.82-1.65,4-2,6.13-.21,2.39-.52,4.55-2.39,6.37a6,6,0,0,1-4.87,1.59h-2.38a7.17,7.17,0,0,0-4,.91c-1.24.79-3.32,3.75-5.91,7.61-4,5.91-9.53,14.09-14.5,16.7-3,1.59-5.39.91-7.26-1.93-2.79-4.2,3.42-9,8.91-13.18,2.8-2.16,5.29-4.09,6.22-5.68,2.7-4.32,3.11-9.55,3.52-14.43.83-9,1.45-16.82,15.86-16.82,1.66,0,3.52,0,5.49.12l2.38.11h3c13.78,0,26.11-2.16,38.13-4.32,9.43-1.59,18.23-3.18,25.9-3.18A43.16,43.16,0,0,1,456,71.42c8.7,2.5,17.82,7,27.45,12.27V83c-9.53-5.22-18.65-9.66-27.25-12.15A36.93,36.93,0,0,0,445.12,69.49Z" transform="translate(10.6 2.93)" fill="#2a40d4" stroke="#fff" stroke-miterlimit="10"/><path d="M414.45,297.76c2,3,6.11,3.3,11.91,3.75l2,.12c1.87.11,3.73.22,5.8.22,9.43.34,20,.69,29.64,9.66l.1.12c5.29,4.77,8.5,13.18,11.3,20.67s5.28,14,9.11,14h.31v-.34h-.31c-3.62,0-6-6.36-8.8-13.75s-6-15.91-11.4-20.79l-.11-.12c-9.73-9.09-20.41-9.43-29.84-9.77-2-.11-3.93-.11-5.69-.22l-2-.12c-5.7-.45-9.74-.79-11.71-3.52s-1.56-7.61.83-16a64.45,64.45,0,0,0,2.48-21.82c-1-14-6.73-26.59-12.33-38.74-5.8-12.73-11.19-24.77-8.39-32.95,4.77-13.75,27.56-38,37.09-39.32.42,0,.73-.11,1.14-.11,7.88,0,25.8,6.82,49,21.36v-.34c-23.21-14.55-41-21.36-49-21.36a3.71,3.71,0,0,0-1.14.11c-9.53,1.36-32.53,25.68-37.3,39.54-2.9,8.41,2.59,20.45,8.4,33.18,5.49,12.16,11.19,24.66,12.22,38.63a63.73,63.73,0,0,1-2.48,21.7C412.79,290.15,412.58,295,414.45,297.76Z" transform="translate(10.6 2.93)" fill="#2a40d4" stroke="#2a40d4" stroke-miterlimit="10"/><path d="M220.9,396.5c15.85-1.82,34.6-21.13,39.68-35.9,8.81-25.57-6.84-46.25-21.86-66.13-14.51-19.2-28.29-37.38-21.55-59.54,5.8-19.32,24.55-29.66,39.37-29.66,8,0,14.82,2.84,19.37,8.18,5.39,6.25,7.46,15.68,6.12,27.39-4.77,40.22-6.12,84.08,37.4,97a53.61,53.61,0,0,0,14.72,2.27c18.34,0,30-10.79,36.68-19.88,12.64-17.38,17-43.4,10.88-64.65-5.19-18.07-15.34-35.57-31.19-53.52-23.52-26.7-55.44-49.77-97.71-70.22l-1.87-.91c-17.82-8.63-36.16-17.61-55.53-22.5-1.14-.34-2.39-.68-3.73-1-6-1.59-13.47-3.63-19.79-3.63a22,22,0,0,0-6.64,1c-2.79,1-4.35,3-5.8,4.88a14.66,14.66,0,0,1-3.94,3.87,46,46,0,0,1-5.38,2.38c-3.63,1.37-7.26,2.84-8.5,4.32-2.28,2.73-1.66,4.32-1,5.91a4.89,4.89,0,0,1,.31,3.86l-.41,1.25c-3.21,9.77-3.21,9.77-10.57,11.93-1.45.46-3.21.91-5.28,1.59-6.12,2.05-8.6,5.12-11,8.07a22.15,22.15,0,0,1-6.94,6.25h-.31c-3.83,0-32.84,1.93-35,9.32-.62,1.93.72,4.09,3.83,6.36A15,15,0,0,0,84.12,178c.94,0,1.77-.11,2.59-.11a11.9,11.9,0,0,1,2-.11c2.39,0,4.67.68,8,8.86.83,2,1.45,3.63,2,5,2.49,6.7,2.59,6.82,8.91,9.66,1.56.68,3.52,1.59,6,2.72,8.19,3.87,9.84,8.3,12,13.86a47.67,47.67,0,0,0,4.77,10,70.47,70.47,0,0,0,8.49,10.34c5.18,5.57,10,10.8,11.71,19.55,2.7,15.22-5.28,29.65-14.4,43.06-4.35,6.48-13.47,14.09-23,22-16.17,13.64-34.61,29-34.61,43.29,0,8.19,2,14.43,6,18.53,4.45,4.54,11.09,6.81,20.51,6.81,13.58,0,30.36-4.77,45.08-8.86,11.71-3.29,21.65-6.14,28.08-6.14a12.75,12.75,0,0,1,3.62.46c6.22,1.93,11.09,5.91,15.86,9.77,6.32,5.23,12.22,10.11,20.72,10.11A8,8,0,0,1,220.9,396.5Zm-39.07-20.45a10.94,10.94,0,0,0-3.83-.45c-6.53,0-16.58,2.84-28.29,6.13-14.71,4.09-31.39,8.86-45,8.86-9.22,0-15.75-2.15-20-6.59-3.94-4.09-5.91-10.11-5.81-18.06.11-14,18.34-29.32,34.4-42.73,9.54-8.06,18.65-15.68,23.11-22.27,9.12-13.52,17.2-28.17,14.51-43.63-1.56-9-6.64-14.31-11.82-20A71.11,71.11,0,0,1,130.65,227a49.71,49.71,0,0,1-4.77-9.88c-2.17-5.68-3.94-10.23-12.33-14.32-2.49-1.13-4.45-2-6-2.72-6.11-2.73-6.11-2.73-8.6-9.21-.52-1.36-1.14-3.07-2-5-3.11-7.84-5.49-9.31-8.6-9.31-.72,0-1.34.11-2.07.11a18.86,18.86,0,0,1-2.49.11,14.37,14.37,0,0,1-8.49-2.95c-2.9-2.05-4-3.86-3.63-5.57,2-6.36,28.91-8.75,34.3-8.75h.31l.1-.34.21.34a20.78,20.78,0,0,0,7.25-6.47c2.49-3.07,4.77-5.91,10.67-7.84,2.08-.69,3.94-1.25,5.29-1.6,7.67-2.27,7.77-2.38,11.09-12.38l.41-1.25a6.18,6.18,0,0,0-.31-4.32c-.52-1.48-1-2.84.93-5.22,1-1.25,4.87-2.73,8.19-4.1a34.58,34.58,0,0,0,5.49-2.49,16.46,16.46,0,0,0,4.14-4.1c1.56-1.93,2.9-3.63,5.49-4.65a17.13,17.13,0,0,1,6.32-.91c6.33,0,13.68,2,19.59,3.63,1.34.34,2.59.68,3.83,1,19.27,4.88,37.72,13.86,55.44,22.49l1.86.91c42.17,20.45,74.08,43.41,97.5,70.11,15.75,18,25.91,35.34,31,53.29,6,21.13,1.66,46.81-10.77,64-6.53,9-18,19.54-36.06,19.54A52.62,52.62,0,0,1,319.43,337c-43-12.72-41.65-56.35-36.88-96.24,1.45-11.93-.73-21.59-6.32-27.95-4.67-5.45-11.71-8.41-19.9-8.41-15,0-34.09,10.57-40,30.23-6.84,22.5,7.66,41.7,21.76,60.22C253,314.58,268.45,335,259.85,360.26c-5,14.54-23.52,33.63-39.06,35.45a20.4,20.4,0,0,1-2.59.11c-8.29,0-14.09-4.77-20.31-9.88C193.13,382,188.15,377.87,181.83,376.05Z" transform="translate(10.6 2.93)" fill="#2a40d4" stroke="#2a40d4" stroke-miterlimit="10"/><path d="M209.66,38.59a52.88,52.88,0,0,0,11.09-1.71c1.76-.45,3.52-.79,4.87-1,2.59-.34,5.08-.46,7.46-.68,5-.34,9.74-.57,13.57-2.73a15.73,15.73,0,0,0,6.74-9A160.59,160.59,0,0,1,264.27-1.18H264a158.93,158.93,0,0,0-10.78,24.54c-1.45,4.2-3.62,7-6.63,8.75-3.73,2.16-8.39,2.39-13.36,2.73-2.39.11-4.87.34-7.47.68-1.34.23-3.1.57-4.86,1a60.31,60.31,0,0,1-11.09,1.7c-3.52,0-6-.9-7.57-2.72-3.93-4.32-2-14.43-.93-19.77l.21-.91a51.65,51.65,0,0,1,5.8-16h-.41a51,51,0,0,0-5.81,15.9l-.2.8c-1,5.45-3,15.57.93,20.11C203.55,37.68,206,38.59,209.66,38.59Z" transform="translate(10.6 2.93)" fill="#2a40d4" stroke="#2a40d4" stroke-miterlimit="10"/><path d="M312.59,82.33c-3.62,2.61-8.49,3.86-15,3.86-7.67,0-16.27-1.81-23.83-3.29-4.46-.91-8.7-1.82-12.12-2.16a103.94,103.94,0,0,0-11.82-.57c-10.36,0-23.62,1.48-28.08,8.3-2,3-2,6.7-.2,11.13.83,2.05,3,3.18,5.07,4.32A12,12,0,0,1,231,107a18.09,18.09,0,0,1,2.38,5.91c.83,2.84,1.76,5.79,3.73,7.5a12.77,12.77,0,0,0,8.6,3.18,49.59,49.59,0,0,0,7.05-.91,28.93,28.93,0,0,1,6.94-.91,12.54,12.54,0,0,1,5.8,1.36c4.25,2.16,6,5.23,7.67,8.18,2.28,3.75,4.35,7.39,11.29,9.09,14.61,3.53,18.55,7.16,28.18,16,1.25,1.14,2.59,2.39,4.05,3.64a63.91,63.91,0,0,1,8.49,10.11,60.85,60.85,0,0,0,7.46,9.21,34.22,34.22,0,0,0,10.36,6.7c4.36,2.05,8.5,4,12.33,10.68l.63,1.14c4.76,8.41,9.53,16.25,12.43,16.25a1.83,1.83,0,0,0,1.24-.57c1-1.14,1.35-4.32.93-9.66-.31-3.07-2.48-5.91-4.55-8.64-2.28-3-4.46-5.68-4.36-8.75.21-3.63,2.28-5.45,4.56-7.38a14.1,14.1,0,0,0,4.35-5.11c2.39-5.34,3-10.12,3.63-14.78.83-6.47,1.56-12.49,7.15-19.42a81.21,81.21,0,0,1,39.79-26.25,49.68,49.68,0,0,1,14.71-2.27c16,0,27.36,8.86,39.38,18.29l4.14,3.18v-1c-1.24-.91-2.49-1.93-3.73-2.84-12.23-9.55-23.73-18.41-39.79-18.41A50.23,50.23,0,0,0,421,112.78a81.75,81.75,0,0,0-40.09,26.48c-5.81,7-6.53,13.29-7.36,19.88-.52,4.55-1.14,9.32-3.52,14.55a14.75,14.75,0,0,1-4.15,4.77c-2.28,1.93-4.66,3.86-4.87,7.95-.1,3.3,2.18,6.36,4.46,9.2,2.07,2.62,4.14,5.34,4.45,8.19.52,6.24-.1,8.4-.72,9.09a.91.91,0,0,1-.62.34c-2.91,0-9.23-11.14-11.82-15.8l-.62-1.13c-3.94-6.82-8.18-8.87-12.64-10.91a32,32,0,0,1-10.15-6.59,73.89,73.89,0,0,1-7.36-9.09,65.85,65.85,0,0,0-8.6-10.34c-1.45-1.37-2.8-2.5-4-3.64-9.74-9-13.78-12.61-28.6-16.13-6.63-1.59-8.7-5.12-10.88-8.75-1.76-3-3.62-6.14-8-8.41a13,13,0,0,0-6.21-1.48,52.76,52.76,0,0,0-7.15.91,28.35,28.35,0,0,1-6.94.91,11.6,11.6,0,0,1-8.09-3c-1.86-1.59-2.69-4.32-3.52-7.16a19.8,19.8,0,0,0-2.59-6.14,12.48,12.48,0,0,0-4.56-3.29c-2.07-1.14-4-2-4.76-3.87-1.66-4.2-1.66-7.61.2-10.45,4.25-6.59,17.31-8,27.46-8,3.94,0,7.77.22,11.71.57,3.42.34,7.67,1.25,12,2.15,7.56,1.6,16.27,3.3,24,3.3,6.73,0,11.81-1.36,15.43-4,9.33-6.7,6.64-16.93,4.05-26.81-2.8-10.57-5.6-21.36,5.8-28.52a10,10,0,0,1,5.49-1.25c6.84,0,16.47,3.86,25.8,7.61,8.08,3.3,15.75,6.25,20.83,6.36h2.07c10.67,0,21.55-1.93,32-3.75s21.24-3.75,32-3.75a70.52,70.52,0,0,1,20.62,2.85,138.22,138.22,0,0,1,17.62,6.7v-.8a134.92,134.92,0,0,0-17.31-6.59,75.68,75.68,0,0,0-20.82-2.84c-10.78,0-21.66,1.93-32.12,3.75S387.71,39.72,377,39.72H375c-4.87-.11-12.43-3.18-20.52-6.36-9.42-3.75-19.06-7.61-26.11-7.61a10.24,10.24,0,0,0-5.8,1.36c-11.91,7.39-9,18.52-6.22,29.31C319,66.42,321.5,76,312.59,82.33Z" transform="translate(10.6 2.93)" fill="#2a40d4" stroke="#fff" stroke-miterlimit="10"/><path d="M484.59,236.18" transform="translate(10.6 2.93)" fill="#2a40d4" stroke="#2a40d4" stroke-miterlimit="10"/><rect x="274.87" width="225.13" height="220.33" fill="#fff"/><rect y="279.67" width="225.13" height="220.33" fill="#fff"/></svg>